<svg width="16" height="17" viewBox="0 0 16 17" fill="none" xmlns="http://www.w3.org/2000/svg">
<path d="M14.187 12.9907C13.8501 12.1928 13.3613 11.468 12.7477 10.8568C12.136 10.2437 11.4113 9.75498 10.6138 9.41747C10.6066 9.4139 10.5995 9.41212 10.5923 9.40855C11.7048 8.60497 12.4281 7.29604 12.4281 5.81926C12.4281 3.37283 10.4459 1.39069 7.99949 1.39069C5.55306 1.39069 3.57091 3.37283 3.57091 5.81926C3.57091 7.29604 4.29413 8.60497 5.40663 9.41033C5.39949 9.4139 5.39234 9.41569 5.3852 9.41926C4.5852 9.75676 3.86734 10.2407 3.25127 10.8585C2.63825 11.4703 2.14949 12.1949 1.81199 12.9925C1.48042 13.7733 1.3016 14.6104 1.2852 15.4585C1.28472 15.4776 1.28807 15.4966 1.29503 15.5143C1.302 15.5321 1.31245 15.5482 1.32576 15.5619C1.33907 15.5755 1.35498 15.5864 1.37255 15.5938C1.39012 15.6012 1.40899 15.605 1.42806 15.605H2.49949C2.57806 15.605 2.64056 15.5425 2.64234 15.4657C2.67806 14.0871 3.23163 12.796 4.2102 11.8175C5.2227 10.805 6.56734 10.2478 7.99949 10.2478C9.43163 10.2478 10.7763 10.805 11.7888 11.8175C12.7673 12.796 13.3209 14.0871 13.3566 15.4657C13.3584 15.5443 13.4209 15.605 13.4995 15.605H14.5709C14.59 15.605 14.6089 15.6012 14.6264 15.5938C14.644 15.5864 14.6599 15.5755 14.6732 15.5619C14.6865 15.5482 14.697 15.5321 14.7039 15.5143C14.7109 15.4966 14.7142 15.4776 14.7138 15.4585C14.6959 14.605 14.5191 13.7746 14.187 12.9907ZM7.99949 8.89069C7.17984 8.89069 6.40841 8.57104 5.82806 7.99069C5.2477 7.41033 4.92806 6.6389 4.92806 5.81926C4.92806 4.99962 5.2477 4.22819 5.82806 3.64783C6.40841 3.06747 7.17984 2.74783 7.99949 2.74783C8.81913 2.74783 9.59056 3.06747 10.1709 3.64783C10.7513 4.22819 11.0709 4.99962 11.0709 5.81926C11.0709 6.6389 10.7513 7.41033 10.1709 7.99069C9.59056 8.57104 8.81913 8.89069 7.99949 8.89069Z" fill="black"/>
</svg>
