<svg width="17" height="16" viewBox="0 0 17 16" fill="none" xmlns="http://www.w3.org/2000/svg">
<path d="M6.14258 2.89062H13.2676V5.01562H6.14258V2.89062ZM3.01758 2.89062H5.14258V13.1406H3.01758V2.89062ZM13.8926 1.75H2.39258C2.11602 1.75 1.89258 1.97344 1.89258 2.25V2.26562C1.89258 1.98906 2.11602 1.76562 2.39258 1.76562H13.8926C14.1691 1.76562 14.3926 1.98906 14.3926 2.26562V2.25C14.3926 1.97344 14.1691 1.75 13.8926 1.75ZM6.14258 6.01562H13.2676V13.1406H6.14258V6.01562Z" fill="white"/>
<path d="M13.8926 1.76562H2.39258C2.11602 1.76562 1.89258 1.98906 1.89258 2.26562V13.7656C1.89258 14.0422 2.11602 14.2656 2.39258 14.2656H13.8926C14.1691 14.2656 14.3926 14.0422 14.3926 13.7656V2.26562C14.3926 1.98906 14.1691 1.76562 13.8926 1.76562ZM5.14258 13.1406H3.01758V2.89062H5.14258V13.1406ZM13.2676 13.1406H6.14258V6.01562H13.2676V13.1406ZM13.2676 5.01562H6.14258V2.89062H13.2676V5.01562Z" fill="#828282"/>
</svg>
