<svg width="14" height="23" viewBox="0 0 34 30" fill="white" xmlns="http://www.w3.org/2000/svg">
<path d="M22.1676 11.6998H32.4975C32.8149 11.6998 33.072 11.4427 33.072 11.1253V0.791351C33.072 0.47394 32.8149 0.216797 32.4975 0.216797H22.1676C21.8502 0.216797 21.593 0.47394 21.593 0.791351V4.52394H16.1408C15.9841 4.52394 15.8555 4.65251 15.8555 4.80921V13.7088H12.4122V9.83153C12.4122 9.51412 12.1551 9.25698 11.8377 9.25698H1.50372C1.18631 9.25698 0.929169 9.51412 0.929169 9.83153V20.1655C0.929169 20.4829 1.18631 20.74 1.50372 20.74H11.8336C12.151 20.74 12.4082 20.4829 12.4082 20.1655V16.2882H15.8515V25.1878C15.8515 25.3445 15.9801 25.473 16.1368 25.473H21.589V29.2056C21.589 29.523 21.8461 29.7802 22.1635 29.7802H32.4935C32.8109 29.7802 33.068 29.523 33.068 29.2056V18.8797C33.068 18.5623 32.8109 18.3052 32.4935 18.3052H22.1676C21.8502 18.3052 21.593 18.5623 21.593 18.8797V22.8976H18.435V7.10742H21.593V11.1253C21.593 11.4427 21.8502 11.6998 22.1676 11.6998ZM24.3171 2.94492H30.3439V8.97573H24.3171V2.94492ZM9.68408 18.0159H3.65729V11.9891H9.68408V18.0159ZM24.3171 21.0333H30.3439V27.0641H24.3171V21.0333Z" fill="white" fill-opacity="1"/>
</svg>
