<svg width="16" height="17" viewBox="0 0 16 17" fill="none" xmlns="http://www.w3.org/2000/svg">
<path d="M10.8749 8.00073H8.49988V5.62573C8.49988 5.55698 8.44363 5.50073 8.37488 5.50073H7.62488C7.55613 5.50073 7.49988 5.55698 7.49988 5.62573V8.00073H5.12488C5.05613 8.00073 4.99988 8.05698 4.99988 8.12573V8.87573C4.99988 8.94448 5.05613 9.00073 5.12488 9.00073H7.49988V11.3757C7.49988 11.4445 7.55613 11.5007 7.62488 11.5007H8.37488C8.44363 11.5007 8.49988 11.4445 8.49988 11.3757V9.00073H10.8749C10.9436 9.00073 10.9999 8.94448 10.9999 8.87573V8.12573C10.9999 8.05698 10.9436 8.00073 10.8749 8.00073Z" fill="black"/>
<path d="M8 1.5C4.13437 1.5 1 4.63437 1 8.5C1 12.3656 4.13437 15.5 8 15.5C11.8656 15.5 15 12.3656 15 8.5C15 4.63437 11.8656 1.5 8 1.5ZM8 14.3125C4.79063 14.3125 2.1875 11.7094 2.1875 8.5C2.1875 5.29063 4.79063 2.6875 8 2.6875C11.2094 2.6875 13.8125 5.29063 13.8125 8.5C13.8125 11.7094 11.2094 14.3125 8 14.3125Z" fill="black"/>
</svg>
