<svg width="14" height="16" viewBox="0 0 14 16" fill="none" xmlns="http://www.w3.org/2000/svg">
<path d="M7.60252 0.769531H6.39716C6.29002 0.769531 6.23645 0.823103 6.23645 0.930246V7.23828H0.250314C0.143171 7.23828 0.0895996 7.29185 0.0895996 7.399V8.60435C0.0895996 8.7115 0.143171 8.76507 0.250314 8.76507H6.23645V15.0731C6.23645 15.1802 6.29002 15.2338 6.39716 15.2338H7.60252C7.70967 15.2338 7.76324 15.1802 7.76324 15.0731V8.76507H13.7503C13.8575 8.76507 13.911 8.7115 13.911 8.60435V7.399C13.911 7.29185 13.8575 7.23828 13.7503 7.23828H7.76324V0.930246C7.76324 0.823103 7.70967 0.769531 7.60252 0.769531Z" fill="#3F88C5"/>
</svg>
