<svg width="15" height="15" viewBox="0 0 34 30" fill="none" xmlns="http://www.w3.org/2000/svg">
<path d="M7.03631 3.67203H26.9649C27.1417 3.67203 27.2863 3.52739 27.2863 3.3506V1.1006C27.2863 0.923818 27.1417 0.779175 26.9649 0.779175H7.03631C6.85953 0.779175 6.71488 0.923818 6.71488 1.1006V3.3506C6.71488 3.52739 6.85953 3.67203 7.03631 3.67203ZM26.9649 20.7077C27.1417 20.7077 27.2863 20.5631 27.2863 20.3863V18.1363C27.2863 17.9595 27.1417 17.8149 26.9649 17.8149H7.03631C6.85953 17.8149 6.71488 17.9595 6.71488 18.1363V20.3863C6.71488 20.5631 6.85953 20.7077 7.03631 20.7077H26.9649ZM32.7506 26.3327H1.2506C1.07381 26.3327 0.929169 26.4774 0.929169 26.6542V28.9042C0.929169 29.081 1.07381 29.2256 1.2506 29.2256H32.7506C32.9274 29.2256 33.072 29.081 33.072 28.9042V26.6542C33.072 26.4774 32.9274 26.3327 32.7506 26.3327ZM32.7506 9.29703H1.2506C1.07381 9.29703 0.929169 9.44168 0.929169 9.61846V11.8685C0.929169 12.0452 1.07381 12.1899 1.2506 12.1899H32.7506C32.9274 12.1899 33.072 12.0452 33.072 11.8685V9.61846C33.072 9.44168 32.9274 9.29703 32.7506 9.29703Z" fill="black" fill-opacity="0.85"/>
</svg>
