<svg width="15" height="15" viewBox="0 0 34 30" fill="none" xmlns="http://www.w3.org/2000/svg">
<path d="M32.7506 0.779175H12.8221C12.6453 0.779175 12.5006 0.923818 12.5006 1.1006V3.3506C12.5006 3.52739 12.6453 3.67203 12.8221 3.67203H32.7506C32.9274 3.67203 33.0721 3.52739 33.0721 3.3506V1.1006C33.0721 0.923818 32.9274 0.779175 32.7506 0.779175ZM32.7506 17.8149H12.8221C12.6453 17.8149 12.5006 17.9595 12.5006 18.1363V20.3863C12.5006 20.5631 12.6453 20.7077 12.8221 20.7077H32.7506C32.9274 20.7077 33.0721 20.5631 33.0721 20.3863V18.1363C33.0721 17.9595 32.9274 17.8149 32.7506 17.8149ZM32.7506 26.3327H1.25063C1.07384 26.3327 0.929199 26.4774 0.929199 26.6542V28.9042C0.929199 29.081 1.07384 29.2256 1.25063 29.2256H32.7506C32.9274 29.2256 33.0721 29.081 33.0721 28.9042V26.6542C33.0721 26.4774 32.9274 26.3327 32.7506 26.3327ZM32.7506 9.29703H1.25063C1.07384 9.29703 0.929199 9.44168 0.929199 9.61846V11.8685C0.929199 12.0452 1.07384 12.1899 1.25063 12.1899H32.7506C32.9274 12.1899 33.0721 12.0452 33.0721 11.8685V9.61846C33.0721 9.44168 32.9274 9.29703 32.7506 9.29703Z" fill="black" fill-opacity="0.85"/>
</svg>
