<svg width="15" height="15" viewBox="0 0 34 30" fill="none" xmlns="http://www.w3.org/2000/svg">
<path d="M1.25063 3.67203H21.1792C21.356 3.67203 21.5006 3.52739 21.5006 3.3506V1.1006C21.5006 0.923818 21.356 0.779175 21.1792 0.779175H1.25063C1.07384 0.779175 0.929199 0.923818 0.929199 1.1006V3.3506C0.929199 3.52739 1.07384 3.67203 1.25063 3.67203ZM1.25063 20.7077H21.1792C21.356 20.7077 21.5006 20.5631 21.5006 20.3863V18.1363C21.5006 17.9595 21.356 17.8149 21.1792 17.8149H1.25063C1.07384 17.8149 0.929199 17.9595 0.929199 18.1363V20.3863C0.929199 20.5631 1.07384 20.7077 1.25063 20.7077ZM32.7506 26.3327H1.25063C1.07384 26.3327 0.929199 26.4774 0.929199 26.6542V28.9042C0.929199 29.081 1.07384 29.2256 1.25063 29.2256H32.7506C32.9274 29.2256 33.0721 29.081 33.0721 28.9042V26.6542C33.0721 26.4774 32.9274 26.3327 32.7506 26.3327ZM32.7506 9.29703H1.25063C1.07384 9.29703 0.929199 9.44168 0.929199 9.61846V11.8685C0.929199 12.0452 1.07384 12.1899 1.25063 12.1899H32.7506C32.9274 12.1899 33.0721 12.0452 33.0721 11.8685V9.61846C33.0721 9.44168 32.9274 9.29703 32.7506 9.29703Z" fill="white" fill-opacity="0.85"/>
</svg>
