<svg width="56" height="50" viewBox="0 0 56 50" fill="none" xmlns="http://www.w3.org/2000/svg">
<rect x="0.5" y="0.5" width="55" height="49" rx="7.5" fill="white"/>
<path fill-rule="evenodd" clip-rule="evenodd" d="M29.2 15.5396C30.7 14.0396 32.3358 14 32.3358 14C32.3358 14 32.6074 16.1624 31.0226 17.7472C29.4379 19.3319 27.953 19.0604 27.953 19.0604C27.953 19.0604 27.7 17.0396 29.2 15.5396ZM26.799 19.9528C27.2489 20.1563 27.6469 20.3363 28.1245 20.3395C28.5372 20.3424 28.9348 20.1641 29.404 19.9537C30.0632 19.6582 30.8637 19.2993 32.0453 19.2905C34.9735 19.2905 36.3509 21.4867 36.3509 21.4867C36.3509 21.4867 33.9924 22.8527 33.9622 25.6301C33.9258 28.9808 36.9358 30.1433 36.9358 30.1433C36.3347 31.9908 35.1547 33.9169 34.2038 34.9282C33.4626 35.7164 32.6994 36.0212 32.0302 36.0212C31.3131 36.0212 30.829 35.8012 30.3325 35.5755C29.8099 35.338 29.2737 35.0942 28.4377 35.0942C27.5892 35.0942 26.9677 35.356 26.3847 35.6015C25.8476 35.8276 25.3434 36.04 24.7245 36.0212C24.007 35.9995 23.378 35.6483 22.9028 35.181C20.1283 32.4527 19 28.4225 19 26.0792C19 23.7358 19.6226 22.581 20.3415 21.5282C21.0637 20.4705 22.7622 19.3773 24.4566 19.3773C25.5262 19.3773 26.2074 19.6853 26.799 19.9528Z" fill="black"/>
<rect x="0.5" y="0.5" width="55" height="49" rx="7.5" stroke="#E0E0E0"/>
</svg>
