<svg width="12" height="12" viewBox="0 0 12 12" fill="none" xmlns="http://www.w3.org/2000/svg">
<path d="M11.6249 5.40625H2.48274L7.95461 0.65625C8.04211 0.579688 7.98899 0.4375 7.87336 0.4375H6.49055C6.42961 0.4375 6.3718 0.459375 6.32649 0.498437L0.421798 5.62188C0.367718 5.66875 0.324346 5.72671 0.294621 5.79181C0.264896 5.85692 0.249512 5.92765 0.249512 5.99922C0.249512 6.07079 0.264896 6.14152 0.294621 6.20663C0.324346 6.27173 0.367718 6.32969 0.421798 6.37656L6.36086 11.5313C6.3843 11.5516 6.41242 11.5625 6.44211 11.5625H7.8718C7.98742 11.5625 8.04055 11.4188 7.95305 11.3438L2.48274 6.59375H11.6249C11.6937 6.59375 11.7499 6.5375 11.7499 6.46875V5.53125C11.7499 5.4625 11.6937 5.40625 11.6249 5.40625Z" fill="black" fill-opacity="0.85"/>
</svg>
