<svg width="22" height="22" viewBox="0 0 22 22" fill="none" xmlns="http://www.w3.org/2000/svg">
<g clip-path="url(#clip0_2368_12873)">
<path d="M15.2572 7.14125C15.2572 7.03322 15.1689 6.94482 15.0608 6.94482L13.4403 6.95219L10.9997 9.86179L8.56149 6.95465L6.93849 6.94728C6.83046 6.94728 6.74207 7.03322 6.74207 7.14371C6.74207 7.19036 6.75925 7.23456 6.78872 7.27139L9.98314 11.0772L6.78872 14.8805C6.75905 14.9165 6.74259 14.9616 6.74207 15.0082C6.74207 15.1163 6.83046 15.2046 6.93849 15.2046L8.56149 15.1973L10.9997 12.2877L13.4378 15.1948L15.0584 15.2022C15.1664 15.2022 15.2548 15.1163 15.2548 15.0058C15.2548 14.9591 15.2376 14.9149 15.2081 14.8781L12.0186 11.0747L15.213 7.26893C15.2425 7.23456 15.2572 7.1879 15.2572 7.14125Z" fill="#FF4D4F"/>
<path d="M11 0.0241699C4.92545 0.0241699 0 4.94962 0 11.0242C0 17.0987 4.92545 22.0242 11 22.0242C17.0746 22.0242 22 17.0987 22 11.0242C22 4.94962 17.0746 0.0241699 11 0.0241699ZM11 20.1581C5.9567 20.1581 1.86607 16.0675 1.86607 11.0242C1.86607 5.98087 5.9567 1.89024 11 1.89024C16.0433 1.89024 20.1339 5.98087 20.1339 11.0242C20.1339 16.0675 16.0433 20.1581 11 20.1581Z" fill="#FF4D4F"/>
</g>
<defs>
<clipPath id="clip0_2368_12873">
<rect width="22" height="22" fill="white"/>
</clipPath>
</defs>
</svg>
