<svg width="15" height="15" viewBox="0 0 36 30" fill="none" xmlns="http://www.w3.org/2000/svg">
<path d="M18.2536 12.8733C18.2236 12.8349 18.1852 12.8038 18.1413 12.7825C18.0974 12.7611 18.0493 12.75 18.0005 12.75C17.9517 12.75 17.9036 12.7611 17.8597 12.7825C17.8159 12.8038 17.7775 12.8349 17.7474 12.8733L13.2474 18.5666C13.2103 18.614 13.1873 18.6709 13.181 18.7307C13.1747 18.7905 13.1853 18.8509 13.2117 18.905C13.2381 18.9591 13.2792 19.0046 13.3303 19.0364C13.3814 19.0683 13.4403 19.0851 13.5005 19.0849H16.4697V28.8242C16.4697 29.001 16.6144 29.1456 16.7911 29.1456H19.2019C19.3786 29.1456 19.5233 29.001 19.5233 28.8242V19.089H22.5005C22.7697 19.089 22.9184 18.7796 22.7536 18.5706L18.2536 12.8733Z" fill="black" fill-opacity="0.85"/>
<path d="M30.0295 9.15452C28.1893 4.30095 23.5004 0.849609 18.008 0.849609C12.5156 0.849609 7.82679 4.29693 5.98661 9.1505C2.5433 10.0545 0 13.1925 0 16.921C0 21.3608 3.59598 24.9568 8.0317 24.9568H9.64286C9.81964 24.9568 9.96429 24.8121 9.96429 24.6353V22.2246C9.96429 22.0478 9.81964 21.9032 9.64286 21.9032H8.0317C6.67768 21.9032 5.40402 21.3648 4.4558 20.3884C3.51161 19.4161 3.00937 18.1063 3.05357 16.7483C3.08973 15.6876 3.45134 14.6911 4.10625 13.8514C4.77723 12.9956 5.71741 12.3728 6.76205 12.0956L8.28482 11.6978L8.8433 10.2273C9.18884 9.31122 9.67098 8.45541 10.2777 7.67997C10.8766 6.91138 11.5861 6.23575 12.383 5.67506C14.0344 4.5139 15.979 3.89916 18.008 3.89916C20.0371 3.89916 21.9817 4.5139 23.633 5.67506C24.4326 6.23756 25.1397 6.91256 25.7384 7.67997C26.3451 8.45541 26.8272 9.31523 27.1728 10.2273L27.7272 11.6938L29.246 12.0956C31.4237 12.6822 32.9464 14.663 32.9464 16.921C32.9464 18.2509 32.4281 19.5045 31.4879 20.4447C31.0269 20.9085 30.4784 21.2762 29.8742 21.5265C29.2701 21.7769 28.6223 21.9049 27.9683 21.9032H26.3571C26.1804 21.9032 26.0357 22.0478 26.0357 22.2246V24.6353C26.0357 24.8121 26.1804 24.9568 26.3571 24.9568H27.9683C32.404 24.9568 36 21.3608 36 16.921C36 13.1965 33.4647 10.0626 30.0295 9.15452Z" fill="black" fill-opacity="0.85"/>
</svg>
