<svg width="15" height="16" viewBox="0 0 15 16" fill="none" xmlns="http://www.w3.org/2000/svg">
<path d="M3 12.2879H4.42857C4.50714 12.2879 4.57143 12.2237 4.57143 12.1451V3.85937C4.57143 3.7808 4.50714 3.71652 4.42857 3.71652H3C2.92143 3.71652 2.85714 3.7808 2.85714 3.85937V12.1451C2.85714 12.2237 2.92143 12.2879 3 12.2879ZM6.42857 7.28795H7.85714C7.93571 7.28795 8 7.22366 8 7.14509V3.85937C8 3.7808 7.93571 3.71652 7.85714 3.71652H6.42857C6.35 3.71652 6.28571 3.7808 6.28571 3.85937V7.14509C6.28571 7.22366 6.35 7.28795 6.42857 7.28795ZM9.85714 8.57366H11.2857C11.3643 8.57366 11.4286 8.50937 11.4286 8.4308V3.85937C11.4286 3.7808 11.3643 3.71652 11.2857 3.71652H9.85714C9.77857 3.71652 9.71428 3.7808 9.71428 3.85937V8.4308C9.71428 8.50937 9.77857 8.57366 9.85714 8.57366ZM13.7143 0.859375H0.571429C0.255357 0.859375 0 1.11473 0 1.4308V14.5737C0 14.8897 0.255357 15.1451 0.571429 15.1451H13.7143C14.0304 15.1451 14.2857 14.8897 14.2857 14.5737V1.4308C14.2857 1.11473 14.0304 0.859375 13.7143 0.859375ZM13 13.8594H1.28571V2.14509H13V13.8594Z" fill="white"/>
</svg>
