<svg width="14" height="16" viewBox="0 0 14 16" fill="none" xmlns="http://www.w3.org/2000/svg">
<path d="M12.8564 0H1.42787C1.1118 0 0.856445 0.255357 0.856445 0.571429V15.4286C0.856445 15.7446 1.1118 16 1.42787 16H12.8564C13.1725 16 13.4279 15.7446 13.4279 15.4286V0.571429C13.4279 0.255357 13.1725 0 12.8564 0ZM2.14216 1.28571H12.1422V5H2.14216V1.28571ZM12.1422 9.85714H2.14216V6.14286H12.1422V9.85714ZM12.1422 14.7143H2.14216V11H12.1422V14.7143ZM6.85645 2.57143H3.57073C3.49216 2.57143 3.42787 2.63571 3.42787 2.71429V3.57143C3.42787 3.65 3.49216 3.71429 3.57073 3.71429H6.85645C6.93502 3.71429 6.9993 3.65 6.9993 3.57143V2.71429C6.9993 2.63571 6.93502 2.57143 6.85645 2.57143ZM3.57073 8.57143H6.85645C6.93502 8.57143 6.9993 8.50714 6.9993 8.42857V7.57143C6.9993 7.49286 6.93502 7.42857 6.85645 7.42857H3.57073C3.49216 7.42857 3.42787 7.49286 3.42787 7.57143V8.42857C3.42787 8.50714 3.49216 8.57143 3.57073 8.57143ZM9.42788 12.9286C9.42788 13.118 9.50313 13.2997 9.63708 13.4336C9.77104 13.5676 9.95272 13.6429 10.1422 13.6429C10.3316 13.6429 10.5133 13.5676 10.6472 13.4336C10.7812 13.2997 10.8564 13.118 10.8564 12.9286C10.8564 12.7391 10.7812 12.5574 10.6472 12.4235C10.5133 12.2895 10.3316 12.2143 10.1422 12.2143C9.95272 12.2143 9.77104 12.2895 9.63708 12.4235C9.50313 12.5574 9.42788 12.7391 9.42788 12.9286V12.9286Z" fill="#1890FF"/>
</svg>
