<svg width="15" height="15" viewBox="0 0 30 36" fill="none" xmlns="http://www.w3.org/2000/svg">
<path d="M27.8562 0H2.14192C1.43075 0 0.856201 0.574554 0.856201 1.28571V34.7143C0.856201 35.4254 1.43075 36 2.14192 36H27.8562C28.5674 36 29.1419 35.4254 29.1419 34.7143V1.28571C29.1419 0.574554 28.5674 0 27.8562 0ZM3.74906 2.89286H26.2491V11.25H3.74906V2.89286ZM26.2491 22.1786H3.74906V13.8214H26.2491V22.1786ZM26.2491 33.1071H3.74906V24.75H26.2491V33.1071ZM6.64192 7.07143C6.64192 7.49767 6.81124 7.90645 7.11264 8.20785C7.41403 8.50925 7.82282 8.67857 8.24906 8.67857C8.6753 8.67857 9.08408 8.50925 9.38548 8.20785C9.68688 7.90645 9.8562 7.49767 9.8562 7.07143C9.8562 6.64519 9.68688 6.2364 9.38548 5.93501C9.08408 5.63361 8.6753 5.46429 8.24906 5.46429C7.82282 5.46429 7.41403 5.63361 7.11264 5.93501C6.81124 6.2364 6.64192 6.64519 6.64192 7.07143V7.07143ZM6.64192 18C6.64192 18.4262 6.81124 18.835 7.11264 19.1364C7.41403 19.4378 7.82282 19.6071 8.24906 19.6071C8.6753 19.6071 9.08408 19.4378 9.38548 19.1364C9.68688 18.835 9.8562 18.4262 9.8562 18C9.8562 17.5738 9.68688 17.165 9.38548 16.8636C9.08408 16.5622 8.6753 16.3929 8.24906 16.3929C7.82282 16.3929 7.41403 16.5622 7.11264 16.8636C6.81124 17.165 6.64192 17.5738 6.64192 18V18ZM6.64192 28.9286C6.64192 29.3548 6.81124 29.7636 7.11264 30.065C7.41403 30.3664 7.82282 30.5357 8.24906 30.5357C8.6753 30.5357 9.08408 30.3664 9.38548 30.065C9.68688 29.7636 9.8562 29.3548 9.8562 28.9286C9.8562 28.5023 9.68688 28.0935 9.38548 27.7921C9.08408 27.4908 8.6753 27.3214 8.24906 27.3214C7.82282 27.3214 7.41403 27.4908 7.11264 27.7921C6.81124 28.0935 6.64192 28.5023 6.64192 28.9286V28.9286Z" fill="black" fill-opacity="0.85"/>
</svg>
