<svg width="343" height="26" viewBox="0 0 343 26" fill="none" xmlns="http://www.w3.org/2000/svg">
<rect x="57" y="12" width="230" height="1" fill="#E0E0E0"/>
<rect x="148" width="47" height="26" rx="13" fill="#E0E0E0"/>
<path d="M171.13 12.6364C171.13 13.5767 170.954 14.3821 170.602 15.0526C170.252 15.7202 169.775 16.2315 169.17 16.5866C168.568 16.9418 167.885 17.1193 167.12 17.1193C166.356 17.1193 165.671 16.9418 165.066 16.5866C164.464 16.2287 163.987 15.7159 163.635 15.0483C163.285 14.3778 163.11 13.5739 163.11 12.6364C163.11 11.696 163.285 10.892 163.635 10.2244C163.987 9.55398 164.464 9.04119 165.066 8.68608C165.671 8.33097 166.356 8.15341 167.12 8.15341C167.885 8.15341 168.568 8.33097 169.17 8.68608C169.775 9.04119 170.252 9.55398 170.602 10.2244C170.954 10.892 171.13 11.696 171.13 12.6364ZM169.541 12.6364C169.541 11.9744 169.437 11.4162 169.23 10.9616C169.025 10.5043 168.741 10.1591 168.377 9.92614C168.014 9.69034 167.595 9.57244 167.12 9.57244C166.646 9.57244 166.227 9.69034 165.863 9.92614C165.5 10.1591 165.214 10.5043 165.007 10.9616C164.802 11.4162 164.7 11.9744 164.7 12.6364C164.7 13.2983 164.802 13.858 165.007 14.3153C165.214 14.7699 165.5 15.1151 165.863 15.3509C166.227 15.5838 166.646 15.7003 167.12 15.7003C167.595 15.7003 168.014 15.5838 168.377 15.3509C168.741 15.1151 169.025 14.7699 169.23 14.3153C169.437 13.858 169.541 13.2983 169.541 12.6364ZM173.585 17V8.27273H176.858C177.528 8.27273 178.091 8.3892 178.545 8.62216C179.003 8.85511 179.348 9.18182 179.581 9.60227C179.816 10.0199 179.934 10.5071 179.934 11.0639C179.934 11.6236 179.815 12.1094 179.576 12.5213C179.341 12.9304 178.993 13.2472 178.532 13.4716C178.072 13.6932 177.507 13.804 176.836 13.804H174.505V12.4915H176.623C177.015 12.4915 177.336 12.4375 177.586 12.3295C177.836 12.2187 178.021 12.0582 178.14 11.848C178.262 11.6349 178.324 11.3736 178.324 11.0639C178.324 10.7543 178.262 10.4901 178.14 10.2713C178.018 10.0497 177.832 9.8821 177.582 9.76847C177.332 9.65199 177.01 9.59375 176.615 9.59375H175.166V17H173.585ZM178.093 13.0455L180.254 17H178.49L176.368 13.0455H178.093Z" fill="#828282"/>
</svg>
