<svg width="20" height="20" viewBox="0 0 32 32" fill="none" xmlns="http://www.w3.org/2000/svg">
<path d="M22.2585 12.2375H20.6097C20.2511 12.2375 19.9101 12.4097 19.6992 12.7015L16.0007 17.8132L12.3023 12.7015C12.0913 12.4097 11.7538 12.2375 11.3917 12.2375H9.74291C9.51439 12.2375 9.3808 12.4976 9.51439 12.6839L15.7722 21.3324C15.8847 21.4871 16.1132 21.4871 16.2257 21.3324L22.4835 12.6839C22.6206 12.4976 22.487 12.2375 22.2585 12.2375Z" fill="#19cdbe" fill-opacity="1"/>
<path d="M16 0.25C7.30234 0.25 0.25 7.30234 0.25 16C0.25 24.6977 7.30234 31.75 16 31.75C24.6977 31.75 31.75 24.6977 31.75 16C31.75 7.30234 24.6977 0.25 16 0.25ZM16 29.0781C8.77891 29.0781 2.92188 23.2211 2.92188 16C2.92188 8.77891 8.77891 2.92188 16 2.92188C23.2211 2.92188 29.0781 8.77891 29.0781 16C29.0781 23.2211 23.2211 29.0781 16 29.0781Z" fill="#19cdbe" fill-opacity="1"/>
</svg>
