<svg width="14" height="12" viewBox="0 0 14 12" fill="none" xmlns="http://www.w3.org/2000/svg">
<path d="M13.068 10.7036L7.38052 0.859863C7.29576 0.713574 7.14947 0.641113 7.00181 0.641113C6.85415 0.641113 6.7065 0.713574 6.6231 0.859863L0.9356 10.7036C0.767436 10.9962 0.977983 11.3599 1.31431 11.3599H12.6893C13.0256 11.3599 13.2362 10.9962 13.068 10.7036ZM6.56431 4.68799C6.56431 4.62783 6.61353 4.57861 6.67369 4.57861H7.32993C7.39009 4.57861 7.43931 4.62783 7.43931 4.68799V7.20361C7.43931 7.26377 7.39009 7.31299 7.32993 7.31299H6.67369C6.61353 7.31299 6.56431 7.26377 6.56431 7.20361V4.68799ZM7.00181 9.50049C6.83008 9.49698 6.66657 9.4263 6.54636 9.30361C6.42615 9.18092 6.35882 9.016 6.35882 8.84424C6.35882 8.67247 6.42615 8.50755 6.54636 8.38486C6.66657 8.26217 6.83008 8.19149 7.00181 8.18799C7.17354 8.19149 7.33705 8.26217 7.45726 8.38486C7.57747 8.50755 7.6448 8.67247 7.6448 8.84424C7.6448 9.016 7.57747 9.18092 7.45726 9.30361C7.33705 9.4263 7.17354 9.49698 7.00181 9.50049Z" fill="white"/>
</svg>
