<svg width="20" height="20" viewBox="0 0 30 34" fill="none" xmlns="http://www.w3.org/2000/svg">
<path d="M14.9989 15.3903C14.9989 15.8166 15.1683 16.2254 15.4697 16.5268C15.771 16.8282 16.1798 16.9975 16.6061 16.9975C17.0323 16.9975 17.4411 16.8282 17.7425 16.5268C18.0439 16.2254 18.2132 15.8166 18.2132 15.3903C18.2132 14.9641 18.0439 14.5553 17.7425 14.2539C17.4411 13.9525 17.0323 13.7832 16.6061 13.7832C16.1798 13.7832 15.771 13.9525 15.4697 14.2539C15.1683 14.5553 14.9989 14.9641 14.9989 15.3903ZM29.7445 29.5694L22.4038 10.5689V3.57785H25.2846V0.845703H4.71322V3.57785H7.59402V10.5689L0.253395 29.5694C0.140895 29.8667 0.0806274 30.1801 0.0806274 30.4975C0.0806274 31.9158 1.23375 33.0689 2.65206 33.0689H27.3458C27.6632 33.0689 27.9766 33.0087 28.2739 32.8962C29.5998 32.3859 30.2588 30.8953 29.7445 29.5694ZM10.3262 11.0792V3.6582H19.6717V11.0792L23.3239 20.5332C22.4922 20.3203 21.6324 20.2118 20.7565 20.2118C18.2976 20.2118 15.9672 21.0756 14.115 22.6225C12.748 23.7645 11.0226 24.3889 9.24134 24.3863C7.9275 24.3863 6.66589 24.0528 5.55295 23.4341L10.3262 11.0792ZM2.88509 30.3368L4.56054 26.0055C5.99491 26.7328 7.59 27.1225 9.24536 27.1225C11.7043 27.1225 14.0346 26.2587 15.8869 24.7118C17.2489 23.5787 18.9525 22.9479 20.7605 22.9479C22.1668 22.9479 23.5088 23.3296 24.682 24.0368L27.1128 30.3368H2.88509Z" fill="#3F88C5" />
</svg>
