<svg width="56" height="50" viewBox="0 0 56 50" fill="none" xmlns="http://www.w3.org/2000/svg">
<rect x="0.5" y="0.5" width="55" height="49" rx="7.5" fill="white"/>
<path fill-rule="evenodd" clip-rule="evenodd" d="M40 25.073C40 18.4058 34.6269 13 28 13C21.3731 13 16 18.4058 16 25.073C16 31.0984 20.3876 36.0933 26.1252 37V28.5636H23.0775V25.073H26.1252V22.4125C26.1252 19.387 27.9173 17.7147 30.6578 17.7147C31.9707 17.7147 33.3444 17.9507 33.3444 17.9507V20.9219H31.8306C30.3406 20.9219 29.8748 21.8523 29.8748 22.8081V25.0729H33.2026L32.671 28.5636H29.8747V36.9999C35.6123 36.0949 40 31.1001 40 25.073Z" fill="#3F88C5"/>
<rect x="0.5" y="0.5" width="55" height="49" rx="7.5" stroke="#E0E0E0"/>
</svg>
