<svg width="64" height="64" viewBox="0 0 48 48" fill="none" xmlns="http://www.w3.org/2000/svg">
<g filter="url(#filter0_d_2225_93403)">
<rect x="8" y="8" width="32" height="32" rx="4" fill="#3B5998"/>
<path fill-rule="evenodd" clip-rule="evenodd" d="M25.3088 23.1407C24.9134 23.0985 24.5713 23.2181 24.2821 23.565V21.4373L23.2349 21.5637V26.4885H24.2821V26.1962C24.4233 26.2968 24.5607 26.4179 24.7214 26.4752C25.3316 26.6934 26.1362 26.5155 26.4177 25.7015C26.5983 25.1792 26.5937 24.6438 26.4576 24.1157C26.3067 23.529 25.9153 23.2051 25.3088 23.1407ZM25.4654 25.2735C25.4193 25.5983 25.1602 25.7684 24.8525 25.7445C24.7757 25.7385 24.7061 25.7228 24.6437 25.6985C24.3958 25.5565 24.3208 25.3188 24.299 25.1695C24.2988 25.1696 24.2986 25.1696 24.2986 25.1697C24.2816 24.9387 24.2633 24.4557 24.3763 24.2275C24.4722 24.0525 24.6395 23.9573 24.8614 23.9499C25.1768 23.9396 25.4153 24.0956 25.4622 24.4148C25.5039 24.6961 25.5058 24.9925 25.4654 25.2735Z" fill="white"/>
<path fill-rule="evenodd" clip-rule="evenodd" d="M29.0203 23.2014C28.6564 23.1044 28.2889 23.1056 27.9258 23.202C27.382 23.3464 27.0176 23.6896 26.9002 24.2355C26.8361 24.5333 26.8234 24.85 26.8403 25.1554C26.8791 25.854 27.3121 26.3517 27.9844 26.5062C27.9938 26.5085 28.0036 26.5102 28.0133 26.5124H28.013C28.013 26.5124 28.0149 26.5127 28.0179 26.5133C28.0438 26.5185 28.0697 26.5233 28.0957 26.5272C28.1043 26.528 28.1132 26.5287 28.1218 26.5295H28.1225C28.1551 26.5355 28.1942 26.54 28.2353 26.5432C28.3669 26.5571 28.5344 26.5671 28.6742 26.5506C28.6751 26.5506 28.6756 26.5504 28.6764 26.5503C28.6834 26.5502 28.6907 26.5502 28.6978 26.5497C29.3919 26.5137 29.9186 26.0771 30.0723 25.4074C30.1567 25.0401 30.1566 24.671 30.0751 24.3034C29.9474 23.7264 29.5966 23.3553 29.0203 23.2014ZM29.0646 25.2206C29.0611 25.2423 29.0575 25.2638 29.0525 25.2851C28.983 25.5933 28.7586 25.7601 28.4594 25.7462C28.1378 25.7315 27.9171 25.544 27.8861 25.2233C27.8637 24.9891 27.8619 24.7499 27.8814 24.5156C27.912 24.1456 28.1439 23.9433 28.4918 23.9501C28.7778 23.9556 28.9814 24.1173 29.0541 24.3915C29.12 24.6674 29.0711 25.1578 29.0646 25.2206Z" fill="white"/>
<path fill-rule="evenodd" clip-rule="evenodd" d="M13.2998 23.1841H12.5524V22.6883C12.607 22.2196 13.3832 22.3086 13.3832 22.3086L13.3834 22.2766L13.3832 22.273V21.5031H13.3831V21.5029H13.3825C13.3557 21.4966 11.8385 21.1374 11.5372 22.2893C11.5372 22.2895 11.5372 22.2899 11.5368 22.2901C11.5362 22.2927 11.5355 22.2952 11.5349 22.2977C11.4875 22.4417 11.4907 23.1012 11.4913 23.1841H10.8435V24.066H11.5315V26.4648H12.5334V24.066H13.2997L13.3859 23.1841H13.2998Z" fill="white"/>
<path fill-rule="evenodd" clip-rule="evenodd" d="M15.6891 23.6061C15.6769 23.5926 15.6647 23.5795 15.6542 23.5686V23.5685C15.6526 23.5668 15.6512 23.5653 15.6495 23.5637C15.635 23.5485 15.6248 23.5385 15.6248 23.5385C15.3889 23.2992 15.2998 23.2397 15.1151 23.1853C14.4044 22.9765 13.7126 23.3477 13.4935 24.0608C13.3589 24.4991 13.357 24.9501 13.4359 25.3939C13.6064 26.355 14.323 26.6768 15.0868 26.5182C15.3211 26.4695 15.4953 26.3239 15.6569 26.1212C15.6569 26.1212 15.6714 26.1035 15.6892 26.0689V26.4918H16.6666V23.1879H15.6892V23.6061H15.6891ZM15.6031 25.2687C15.5704 25.5743 15.3226 25.7577 15.0296 25.7462C14.7295 25.7346 14.5309 25.5743 14.466 25.287C14.3883 24.8783 14.4793 24.3926 14.487 24.3533C14.5654 24.0789 14.7655 23.9432 15.059 23.9501C15.3472 23.9565 15.5694 24.1267 15.6019 24.4245C15.6323 24.7032 15.6331 24.99 15.6031 25.2687Z" fill="white"/>
<path fill-rule="evenodd" clip-rule="evenodd" d="M19.6514 26.255C19.6061 26.0895 19.5545 25.9263 19.5045 25.7686L19.4574 25.5933C19.4574 25.5933 18.2325 26.1799 18.0414 25.0653C18.0238 24.8813 18.0292 24.6915 18.0546 24.5099C18.1022 24.1673 18.3118 23.9839 18.6451 23.9524C18.7577 23.9417 18.8749 23.9471 18.9864 23.966C19.1382 23.9915 19.2864 24.0371 19.4526 24.0781C19.5103 23.9018 19.5694 23.7274 19.6244 23.5519C19.633 23.5244 19.6402 23.5006 19.6459 23.4794H19.646L19.6736 23.3739C19.6667 23.3599 19.65 23.3453 19.6276 23.3312V23.3313C19.5995 23.3078 19.5515 23.2882 19.4765 23.2609C19.4466 23.2499 19.4165 23.2402 19.3864 23.2309C19.3595 23.2223 19.3419 23.2173 19.3419 23.2173H19.342C19.0202 23.1255 18.6899 23.1184 18.3542 23.1537C17.6469 23.2282 17.1667 23.6446 17.0336 24.332C16.9637 24.6937 16.9669 25.0598 17.0472 25.4225C17.1673 25.9658 17.4974 26.3168 18.0341 26.4737C18.3843 26.5761 18.7432 26.5813 19.1002 26.5257C19.2503 26.5023 19.4657 26.4247 19.6203 26.3693L19.6791 26.3487L19.6513 26.2547L19.6514 26.255Z" fill="white"/>
<path fill-rule="evenodd" clip-rule="evenodd" d="M22.8764 24.9624C22.8717 24.7337 22.8748 24.5039 22.8424 24.2791C22.753 23.6628 22.3768 23.2728 21.7684 23.1709C21.5362 23.1322 21.2907 23.1373 21.0548 23.1598C20.4091 23.2212 19.919 23.6224 19.8186 24.2261C19.7576 24.5923 19.7498 24.981 19.7991 25.3488C19.8736 25.9021 20.1436 26.2546 20.6109 26.4238H20.6111C20.6132 26.4239 20.6152 26.4242 20.6173 26.4245C20.617 26.4247 20.6171 26.4247 20.617 26.4248C20.8303 26.4884 21.8742 26.7607 22.7944 26.2996L22.7574 26.1644C22.7571 26.1647 22.7565 26.1647 22.7561 26.1647C22.7135 25.9844 22.6623 25.8061 22.614 25.6274L22.6088 25.6099C22.6088 25.6099 22.5897 25.6168 22.5558 25.6276C22.5551 25.6277 22.5541 25.6277 22.5534 25.6278C22.5132 25.6382 22.4735 25.6505 22.4341 25.6637C22.4267 25.6661 22.4195 25.6684 22.4122 25.6705C22.2728 25.7096 22.0737 25.7579 21.8635 25.7849C21.687 25.8026 21.5087 25.8034 21.3287 25.788C21.0365 25.7398 20.8129 25.5836 20.8236 25.2145H20.9906C21.5634 25.2145 22.1362 25.2145 22.7092 25.2144C22.7228 25.2144 22.7366 25.2145 22.7502 25.2143L22.7501 25.2145C22.7501 25.2145 22.8731 25.213 22.8783 25.2118C22.8783 25.2118 22.8782 25.1794 22.8783 25.1754L22.8764 24.9624ZM21.9344 24.5119H20.8029C20.8088 24.2874 20.8369 24.0787 21.037 23.9516C21.2494 23.817 21.4842 23.812 21.7026 23.9327C21.9235 24.0544 21.9408 24.2742 21.9344 24.5119Z" fill="white"/>
<path fill-rule="evenodd" clip-rule="evenodd" d="M37.1562 23.2223H36.0458L35.081 24.7269V21.5874V21.5668V21.4402L34.0332 21.5668V26.4917H35.081V24.9845L36.0458 26.4939H37.1562L36.1096 24.8554L37.1562 23.2223Z" fill="white"/>
<path fill-rule="evenodd" clip-rule="evenodd" d="M32.5921 23.2011C32.2282 23.1039 31.8604 23.1051 31.4973 23.2015C30.9538 23.346 30.5894 23.6891 30.472 24.2349C30.4079 24.5328 30.3951 24.8494 30.4121 25.1549C30.4506 25.8535 30.8839 26.3513 31.5559 26.5057C31.5655 26.508 31.5754 26.5097 31.585 26.5119H31.5848C31.5848 26.5119 31.5865 26.5122 31.5895 26.5128C31.6153 26.518 31.6415 26.5228 31.6674 26.5266C31.6761 26.5275 31.6849 26.5283 31.6935 26.5288C31.6938 26.529 31.694 26.529 31.6943 26.529C31.7271 26.535 31.766 26.5396 31.8069 26.5428C31.9387 26.5567 32.1064 26.5667 32.246 26.5503C32.2467 26.55 32.2472 26.55 32.2481 26.5498C32.2555 26.5497 32.2624 26.5497 32.2693 26.5493C32.9636 26.5132 33.4904 26.0765 33.6441 25.407C33.7284 25.0397 33.7284 24.6705 33.6471 24.3029C33.519 23.7259 33.1684 23.3548 32.5921 23.2011ZM32.6362 25.2201C32.6327 25.2419 32.6291 25.2633 32.6242 25.2847C32.5544 25.5929 32.3303 25.7595 32.0311 25.7458C31.7094 25.7308 31.4888 25.5433 31.4578 25.2228C31.4354 24.9887 31.4333 24.7495 31.4528 24.5152C31.4839 24.1451 31.7156 23.9428 32.0637 23.9496C32.3492 23.9551 32.5531 24.1168 32.6258 24.391C32.6914 24.6667 32.6428 25.1574 32.6362 25.2201Z" fill="white"/>
</g>
<defs>
<filter id="filter0_d_2225_93403" x="0" y="0" width="48" height="48" filterUnits="userSpaceOnUse" color-interpolation-filters="sRGB">
<feFlood flood-opacity="0" result="BackgroundImageFix"/>
<feColorMatrix in="SourceAlpha" type="matrix" values="0 0 0 0 0 0 0 0 0 0 0 0 0 0 0 0 0 0 127 0" result="hardAlpha"/>
<feOffset/>
<feGaussianBlur stdDeviation="4"/>
<feColorMatrix type="matrix" values="0 0 0 0 0 0 0 0 0 0 0 0 0 0 0 0 0 0 0.2 0"/>
<feBlend mode="normal" in2="BackgroundImageFix" result="effect1_dropShadow_2225_93403"/>
<feBlend mode="normal" in="SourceGraphic" in2="effect1_dropShadow_2225_93403" result="shape"/>
</filter>
</defs>
</svg>
