<svg width="15" height="15" viewBox="0 0 30 36" fill="none" xmlns="http://www.w3.org/2000/svg">
<path d="M28.7664 9.02411L20.1199 0.377679C19.8789 0.136607 19.5534 0 19.2119 0H2.14405C1.43289 0 0.858337 0.574554 0.858337 1.28571V34.7143C0.858337 35.4254 1.43289 36 2.14405 36H27.8583C28.5695 36 29.1441 35.4254 29.1441 34.7143V9.93616C29.1441 9.59464 29.0074 9.26518 28.7664 9.02411ZM26.1789 10.5268H18.6173V2.96518L26.1789 10.5268ZM26.2512 33.1071H3.75119V2.89286H15.8851V11.5714C15.8851 12.019 16.0629 12.4482 16.3794 12.7647C16.6958 13.0811 17.1251 13.2589 17.5726 13.2589H26.2512V33.1071Z" fill="black" fill-opacity="0.85"/>
</svg>
