<svg width="56" height="50" viewBox="0 0 56 50" fill="none" xmlns="http://www.w3.org/2000/svg">
<rect x="0.5" y="0.5" width="55" height="49" rx="7.5" fill="white"/>
<g clip-path="url(#clip0_1035_56807)">
<path d="M39.7135 25.2763C39.7135 24.4605 39.6474 23.6404 39.5063 22.8379H28.1875V27.4589H34.6692C34.4003 28.9492 33.536 30.2676 32.2705 31.1054V34.1037H36.1375C38.4083 32.0137 39.7135 28.9272 39.7135 25.2763Z" fill="#3F88C5"/>
<path d="M28.1876 37.0013C31.4241 37.0013 34.1535 35.9387 36.1421 34.1044L32.2751 31.106C31.1992 31.838 29.8103 32.2525 28.192 32.2525C25.0614 32.2525 22.407 30.1404 21.4546 27.3008H17.4641V30.3917C19.5012 34.4439 23.6504 37.0013 28.1876 37.0013Z" fill="#34A853"/>
<path d="M21.45 27.3007C20.9474 25.8103 20.9474 24.1965 21.45 22.7062V19.6152H17.464C15.762 23.006 15.762 27.0009 17.464 30.3916L21.45 27.3007Z" fill="#FBBC04"/>
<path d="M28.1876 17.7497C29.8985 17.7232 31.552 18.367 32.791 19.5487L36.217 16.1226C34.0476 14.0855 31.1683 12.9655 28.1876 13.0008C23.6504 13.0008 19.5012 15.5582 17.4641 19.6148L21.4502 22.7057C22.3982 19.8617 25.057 17.7497 28.1876 17.7497Z" fill="#EA4335"/>
</g>
<rect x="0.5" y="0.5" width="55" height="49" rx="7.5" stroke="#E0E0E0"/>
<defs>
<clipPath id="clip0_1035_56807">
<rect width="24" height="24" fill="white" transform="translate(16 13)"/>
</clipPath>
</defs>
</svg>
