<svg width="15" height="15" viewBox="0 0 36 30" fill="none" xmlns="http://www.w3.org/2000/svg">
<path d="M35.9036 14.8153L21.6643 0.784932C21.6348 0.75529 21.5997 0.731769 21.5611 0.715719C21.5225 0.699669 21.4811 0.691406 21.4393 0.691406C21.3975 0.691406 21.3561 0.699669 21.3175 0.715719C21.2788 0.731769 21.2438 0.75529 21.2143 0.784932L11.6237 10.2349C11.5633 10.2948 11.529 10.3761 11.5283 10.4611C11.5275 10.5461 11.5604 10.628 11.6196 10.6889L11.6237 10.693L13.2308 12.276L8.52188 16.9086C8.46152 16.9685 8.42724 17.0498 8.42649 17.1348C8.42573 17.2198 8.45857 17.3017 8.51786 17.3626L8.52188 17.3666L10.1089 18.9296L2.51116 26.443H0.325446C0.148661 26.443 0 26.5876 0 26.7644V28.9823C0 29.159 0.144643 29.3037 0.321429 29.3037H14.179C14.2634 29.3037 14.3438 29.2715 14.404 29.2113L17.4616 26.1738L19.0848 27.7729C19.1143 27.8025 19.1494 27.826 19.188 27.8421C19.2266 27.8581 19.268 27.8664 19.3098 27.8664C19.3516 27.8664 19.393 27.8581 19.4317 27.8421C19.4703 27.826 19.5053 27.8025 19.5348 27.7729L24.2397 23.1282L25.8509 24.7153C25.8804 24.7449 25.9154 24.7685 25.9541 24.7845C25.9927 24.8006 26.0341 24.8088 26.0759 24.8088C26.1177 24.8088 26.1591 24.8006 26.1977 24.7845C26.2363 24.7685 26.2714 24.7449 26.3009 24.7153L35.8915 15.2653C36.0281 15.1448 36.0281 14.9439 35.9036 14.8153ZM13.0902 26.4189H6.65357L12.0536 21.0751L15.2719 24.2452L13.0902 26.4189ZM19.3098 23.9238L12.4232 17.1376L15.1795 14.4215L22.0661 21.2077L19.3098 23.9238ZM26.0799 20.8662L15.521 10.464L21.4393 4.63404L31.9982 15.0403L26.0799 20.8662Z" fill="black" fill-opacity="0.85"/>
</svg>
