<svg width="17" height="16" viewBox="0 0 17 16" fill="none" xmlns="http://www.w3.org/2000/svg">
<path d="M15.9025 7.87393L9.00247 0.9775L8.53997 0.515C8.43459 0.410316 8.29208 0.351563 8.14354 0.351562C7.995 0.351562 7.85249 0.410316 7.74711 0.515L0.384616 7.87393C0.276636 7.98149 0.191298 8.10959 0.133638 8.25067C0.0759785 8.39175 0.0471663 8.54296 0.0489021 8.69536C0.056045 9.32393 0.579259 9.82571 1.20783 9.82571H1.96676V15.6418H14.3203V9.82571H15.0953C15.4007 9.82571 15.6882 9.70607 15.9043 9.49C16.0106 9.38395 16.0949 9.25784 16.1523 9.11899C16.2096 8.98014 16.2388 8.83129 16.2382 8.68107C16.2382 8.3775 16.1185 8.09 15.9025 7.87393ZM9.14354 14.3561H7.14354V10.7132H9.14354V14.3561ZM13.0346 8.54V14.3561H10.2864V10.2846C10.2864 9.89 9.96676 9.57036 9.57211 9.57036H6.71497C6.32033 9.57036 6.00069 9.89 6.00069 10.2846V14.3561H3.25247V8.54H1.53819L8.14533 1.93821L8.55783 2.35071L14.7507 8.54H13.0346Z" fill="#828282"/>
</svg>
