<svg width="10" height="10" viewBox="0 0 32 32" fill="none" xmlns="http://www.w3.org/2000/svg">
    <path d="M16 0.25C7.30234 0.25 0.25 7.30234 0.25 16C0.25 24.6977 7.30234 31.75 16 31.75C24.6977 31.75 31.75 24.6977 31.75 16C31.75 7.30234 24.6977 0.25 16 0.25ZM16 29.0781C8.77891 29.0781 2.92188 23.2211 2.92188 16C2.92188 8.77891 8.77891 2.92188 16 2.92188C23.2211 2.92188 29.0781 8.77891 29.0781 16C29.0781 23.2211 23.2211 29.0781 16 29.0781Z" fill="#1890FF"/>
    <path d="M14.3125 9.8125C14.3125 10.2601 14.4903 10.6893 14.8068 11.0057C15.1232 11.3222 15.5524 11.5 16 11.5C16.4476 11.5 16.8768 11.3222 17.1932 11.0057C17.5097 10.6893 17.6875 10.2601 17.6875 9.8125C17.6875 9.36495 17.5097 8.93572 17.1932 8.61926C16.8768 8.30279 16.4476 8.125 16 8.125C15.5524 8.125 15.1232 8.30279 14.8068 8.61926C14.4903 8.93572 14.3125 9.36495 14.3125 9.8125ZM16.8438 13.75H15.1562C15.0016 13.75 14.875 13.8766 14.875 14.0312V23.5938C14.875 23.7484 15.0016 23.875 15.1562 23.875H16.8438C16.9984 23.875 17.125 23.7484 17.125 23.5938V14.0312C17.125 13.8766 16.9984 13.75 16.8438 13.75Z" fill="#1890FF"/>
</svg>
