<svg width="16" height="16" viewBox="0 0 34 34" fill="none" xmlns="http://www.w3.org/2000/svg">
<path d="M20.8583 0.933594C14.1123 0.933594 8.64401 6.4019 8.64401 13.1479C8.64401 15.9724 9.60428 18.572 11.2114 20.6412L9.56008 22.2925L7.05696 19.7894C6.99577 19.7295 6.91355 19.696 6.82794 19.696C6.74232 19.696 6.66012 19.7295 6.59892 19.7894L4.99982 21.3885C4.93994 21.4497 4.90641 21.5319 4.90641 21.6175C4.90641 21.7031 4.93994 21.7853 4.99982 21.8465L7.50294 24.3497L5.69892 26.1537L3.1958 23.6506C3.1346 23.5907 3.05239 23.5571 2.96678 23.5571C2.88116 23.5571 2.79895 23.5907 2.73776 23.6506L1.13865 25.2497C1.07878 25.3109 1.04525 25.3931 1.04525 25.4787C1.04525 25.5643 1.07878 25.6465 1.13865 25.7077L3.64178 28.2108L1.01812 30.8345C0.9583 30.8949 0.924744 30.9765 0.924744 31.0615C0.924744 31.1465 0.9583 31.2281 1.01812 31.2885L2.71767 32.9881C2.84223 33.1126 3.04714 33.1126 3.17169 32.9881L13.361 22.7988C15.5059 24.4624 18.1438 25.3644 20.8583 25.3622C27.6043 25.3622 33.0726 19.8939 33.0726 13.1479C33.0726 6.4019 27.6043 0.933594 20.8583 0.933594ZM27.3351 19.6247C25.6074 21.3564 23.3052 22.3086 20.8583 22.3086C18.4114 22.3086 16.1092 21.3564 14.3815 19.6247C12.6498 17.897 11.6976 15.5948 11.6976 13.1479C11.6976 10.701 12.6498 8.39877 14.3815 6.67109C16.1092 4.9394 18.4114 3.98717 20.8583 3.98717C23.3052 3.98717 25.6074 4.9394 27.3351 6.67109C29.0668 8.39877 30.019 10.701 30.019 13.1479C30.019 15.5948 29.0668 17.897 27.3351 19.6247Z" fill="black" fill-opacity="0.85"/>
</svg>
