<svg width="34" height="15" viewBox="0 0 34 15" fill="none" xmlns="http://www.w3.org/2000/svg">
<path fill-rule="evenodd" clip-rule="evenodd" d="M0.781148 0.287109H7.06561L7.18646 2.69001H6.96893C6.63053 1.87286 6.27602 1.31461 5.9054 1.01526C5.53478 0.707819 4.99093 0.554099 4.27386 0.554099H3.85087V4.30408H4.26177C4.64045 4.30408 4.9587 4.1625 5.21653 3.87933C5.47435 3.58806 5.65563 3.19972 5.76038 2.71428H5.94166V6.3065H5.7362C5.59118 5.69971 5.39378 5.26686 5.14401 5.00796C4.9023 4.74906 4.56794 4.61961 4.14092 4.61961H3.85087V8.51522H4.31011C5.05136 8.51522 5.67981 8.29273 6.19545 7.84775C6.71916 7.40277 7.07769 6.83239 7.27106 6.1366H7.51277L7.41609 8.78221H0.781148V8.51522H1.49419V0.554099H0.781148V0.287109ZM11.3683 8.90357C10.329 8.90357 9.54745 8.63658 9.02374 8.10261C8.50809 7.56054 8.25027 6.81216 8.25027 5.85747C8.25027 4.89469 8.54032 4.15845 9.12043 3.64874C9.70859 3.13904 10.4539 2.88418 11.3562 2.88418C13.1852 2.88418 14.0634 3.80651 13.9909 5.65116H10.5828V6.12446C10.5828 6.91734 10.6835 7.51604 10.8849 7.92057C11.0863 8.3251 11.4368 8.52736 11.9363 8.52736C12.871 8.52736 13.4833 8.02574 13.7733 7.02251L13.9909 7.05892C13.8378 7.64144 13.5598 8.09451 13.157 8.41814C12.7622 8.74176 12.166 8.90357 11.3683 8.90357ZM10.5949 5.40844H11.8397V4.81379C11.8397 4.15845 11.7994 3.71347 11.7188 3.47884C11.6463 3.23612 11.4932 3.11477 11.2596 3.11477C11.034 3.11477 10.8648 3.24421 10.752 3.50311C10.6472 3.75392 10.5949 4.19081 10.5949 4.81379V5.40844ZM17.0589 8.56377L19.9232 3.22399V3.00554H14.8473L14.6901 5.33563H14.8473C15.097 4.46185 15.379 3.89146 15.6932 3.62447C16.0155 3.35748 16.5835 3.22399 17.3973 3.22399H17.5302L14.6176 8.60017V8.78221H19.6935L19.8869 6.29436H19.7177C19.5002 7.09533 19.198 7.67381 18.8113 8.02979C18.4246 8.38578 17.8928 8.56377 17.216 8.56377H17.0589ZM25.8305 3.22399L22.9663 8.56377H23.1234C23.8002 8.56377 24.3319 8.38578 24.7187 8.02979C25.1054 7.67381 25.4075 7.09533 25.6251 6.29436H25.7943L25.6009 8.78221H20.525V8.60017L23.4376 3.22399H23.3047C22.4909 3.22399 21.9229 3.35748 21.6006 3.62447C21.2864 3.89146 21.0044 4.46185 20.7546 5.33563H20.5975L20.7546 3.00554H25.8305V3.22399ZM27.2055 8.10261C27.7292 8.63658 28.5107 8.90357 29.55 8.90357C30.3477 8.90357 30.9439 8.74176 31.3387 8.41814C31.7415 8.09451 32.0195 7.64144 32.1726 7.05892L31.9551 7.02251C31.665 8.02574 31.0527 8.52736 30.1181 8.52736C29.6185 8.52736 29.268 8.3251 29.0666 7.92057C28.8652 7.51604 28.7645 6.91734 28.7645 6.12446V5.65116H32.1726C32.2451 3.80651 31.3669 2.88418 29.538 2.88418C28.6356 2.88418 27.8903 3.13904 27.3021 3.64874C26.722 4.15845 26.432 4.89469 26.432 5.85747C26.432 6.81216 26.6898 7.56054 27.2055 8.10261ZM30.0214 5.40844H28.7766V4.81379C28.7766 4.19081 28.8289 3.75392 28.9337 3.50311C29.0465 3.24421 29.2157 3.11477 29.4413 3.11477C29.6749 3.11477 29.828 3.23612 29.9005 3.47884C29.9811 3.71347 30.0214 4.15845 30.0214 4.81379V5.40844ZM0.642791 13.0965C14.646 7.89456 33.9022 13.1883 33.9022 13.1883C33.9022 13.1883 13.8177 8.85953 1.18521 14.4587C0.21077 14.8906 -0.370099 13.4728 0.642791 13.0965Z" fill="#012840"/>
</svg>
