<svg width="170" height="72" viewBox="0 0 170 72" fill="none" xmlns="http://www.w3.org/2000/svg">
<path fill-rule="evenodd" clip-rule="evenodd" d="M3.40565 0.40625H34.828L35.4322 12.4039H34.3445C32.6526 8.32392 30.88 5.53658 29.0269 4.04192C27.1738 2.50686 24.4546 1.73933 20.8692 1.73933H18.7542V20.463H20.8088C22.7022 20.463 24.2934 19.7561 25.5825 18.3422C26.8717 16.8879 27.7781 14.9489 28.3018 12.5251H29.2082V30.4611H28.1809C27.4558 27.4314 26.4688 25.2702 25.22 23.9775C24.0114 22.6848 22.3396 22.0385 20.2045 22.0385H18.7542V41.4893H21.0505C24.7567 41.4893 27.8989 40.3784 30.4772 38.1566C33.0957 35.9348 34.8884 33.0868 35.8552 29.6128H37.0638L36.5804 42.8223H3.40565V41.4893H6.97087V1.73933H3.40565V0.40625ZM56.3416 43.4283C51.1448 43.4283 47.2372 42.0952 44.6186 39.4291C42.0404 36.7225 40.7513 32.9859 40.7513 28.2191C40.7513 23.4119 42.2015 19.7359 45.1021 17.1909C48.0429 14.6459 51.7692 13.3735 56.2811 13.3735C65.4258 13.3735 69.8169 17.9786 69.4543 27.189H52.4138V29.5522C52.4138 33.511 52.9173 36.5003 53.9245 38.5201C54.9316 40.54 56.684 41.5499 59.1817 41.5499C63.8547 41.5499 66.9164 39.0453 68.3666 34.0361L69.4543 34.2179C68.6889 37.1265 67.2991 39.3887 65.2848 41.0045C63.3109 42.6204 60.3298 43.4283 56.3416 43.4283ZM52.4742 25.9771H58.6982V23.008C58.6982 19.7359 58.4968 17.5141 58.094 16.3426C57.7314 15.1307 56.966 14.5247 55.7977 14.5247C54.6697 14.5247 53.8238 15.1711 53.2598 16.4638C52.7361 17.7161 52.4742 19.8975 52.4742 23.008V25.9771ZM84.7944 41.7316L99.1158 15.0701V13.9794H73.7362L72.9506 25.6135H73.7362C74.985 21.2507 76.395 18.4028 77.9661 17.0697C79.5775 15.7366 82.4176 15.0701 86.4864 15.0701H87.1511L72.5881 41.9134V42.8223H97.9676L98.9345 30.4005H98.0885C97.0008 34.3997 95.4901 37.2881 93.5564 39.0655C91.6227 40.8429 88.9639 41.7316 85.58 41.7316H84.7944ZM128.653 15.0701L114.331 41.7316H115.117C118.501 41.7316 121.16 40.8429 123.093 39.0655C125.027 37.2881 126.538 34.3997 127.625 30.4005H128.471L127.504 42.8223H102.125V41.9134L116.688 15.0701H116.023C111.954 15.0701 109.114 15.7366 107.503 17.0697C105.932 18.4028 104.522 21.2507 103.273 25.6135H102.487L103.273 13.9794H128.653V15.0701ZM135.527 39.4291C138.146 42.0952 142.053 43.4283 147.25 43.4283C151.238 43.4283 154.219 42.6204 156.193 41.0045C158.208 39.3887 159.597 37.1265 160.363 34.2179L159.275 34.0361C157.825 39.0453 154.763 41.5499 150.09 41.5499C147.593 41.5499 145.84 40.54 144.833 38.5201C143.826 36.5003 143.322 33.511 143.322 29.5522V27.189H160.363C160.725 17.9786 156.334 13.3735 147.19 13.3735C142.678 13.3735 138.951 14.6459 136.011 17.1909C133.11 19.7359 131.66 23.4119 131.66 28.2191C131.66 32.9859 132.949 36.7225 135.527 39.4291ZM149.607 25.9771H143.383V23.008C143.383 19.8975 143.645 17.7161 144.168 16.4638C144.732 15.1711 145.578 14.5247 146.706 14.5247C147.875 14.5247 148.64 15.1307 149.002 16.3426C149.405 17.5141 149.607 19.7359 149.607 23.008V25.9771ZM2.71385 64.3638C72.73 38.3903 169.011 64.8219 169.011 64.8219C169.011 64.8219 68.5884 43.2084 5.42596 71.1649C0.553745 73.3214 -2.35061 66.2425 2.71385 64.3638Z" fill="white"/>
</svg>
