<svg width="19" height="19" viewBox="0 0 32 32" fill="none" xmlns="http://www.w3.org/2000/svg">
<path d="M22.4685 14.8734H9.53098C9.37629 14.8734 9.24973 14.9999 9.24973 15.1546V16.8421C9.24973 16.9968 9.37629 17.1234 9.53098 17.1234H22.4685C22.6232 17.1234 22.7497 16.9968 22.7497 16.8421V15.1546C22.7497 14.9999 22.6232 14.8734 22.4685 14.8734Z" fill="red" fill-opacity="0.85"/>
<path d="M16 0.25C7.30234 0.25 0.25 7.30234 0.25 16C0.25 24.6977 7.30234 31.75 16 31.75C24.6977 31.75 31.75 24.6977 31.75 16C31.75 7.30234 24.6977 0.25 16 0.25ZM16 29.0781C8.77891 29.0781 2.92188 23.2211 2.92188 16C2.92188 8.77891 8.77891 2.92188 16 2.92188C23.2211 2.92188 29.0781 8.77891 29.0781 16C29.0781 23.2211 23.2211 29.0781 16 29.0781Z" fill="red" fill-opacity="0.85"/>
</svg>
