<svg width="15" height="17" viewBox="0 0 28 32" fill="none" xmlns="http://www.w3.org/2000/svg">
<path d="M24.7389 3.33471C20.954 -0.450112 14.7906 -0.450112 11.0098 3.33471L0.523233 13.8133C0.45493 13.8816 0.418769 13.974 0.418769 14.0704C0.418769 14.1669 0.45493 14.2593 0.523233 14.3276L2.00582 15.8102C2.07359 15.8776 2.16533 15.9155 2.26096 15.9155C2.35659 15.9155 2.44832 15.8776 2.51609 15.8102L13.0027 5.33158C14.3045 4.0298 16.0362 3.31462 17.8764 3.31462C19.7165 3.31462 21.4482 4.0298 22.746 5.33158C24.0478 6.63337 24.763 8.36507 24.763 10.2012C24.763 12.0414 24.0478 13.7691 22.746 15.0709L12.0585 25.7544L10.3268 27.4861C8.70761 29.1052 6.07591 29.1052 4.45672 27.4861C3.67323 26.7026 3.24332 25.6619 3.24332 24.553C3.24332 23.4441 3.67323 22.4035 4.45672 21.62L15.0598 11.0209C15.329 10.7557 15.6826 10.607 16.0603 10.607H16.0643C16.442 10.607 16.7915 10.7557 17.0567 11.0209C17.3259 11.2901 17.4706 11.6436 17.4706 12.0213C17.4706 12.395 17.3219 12.7485 17.0567 13.0137L8.3902 21.6722C8.32189 21.7405 8.28573 21.8329 8.28573 21.9294C8.28573 22.0258 8.32189 22.1182 8.3902 22.1865L9.87279 23.6691C9.94056 23.7366 10.0323 23.7744 10.1279 23.7744C10.2236 23.7744 10.3153 23.7366 10.3831 23.6691L19.0456 15.0066C19.8451 14.207 20.2831 13.1463 20.2831 12.0173C20.2831 10.8883 19.8411 9.82355 19.0456 9.02801C17.3942 7.37667 14.7103 7.38069 13.0589 9.02801L12.0304 10.0606L2.45984 19.6271C1.81028 20.2729 1.29538 21.0412 0.945009 21.8874C0.594639 22.7337 0.415768 23.6411 0.418769 24.557C0.418769 26.4173 1.146 28.1651 2.45984 29.4789C3.82189 30.8369 5.60582 31.516 7.38975 31.516C9.17368 31.516 10.9576 30.8369 12.3156 29.4789L24.7389 17.0637C26.567 15.2316 27.5795 12.7927 27.5795 10.2012C27.5835 7.60569 26.571 5.16685 24.7389 3.33471Z" fill="black" fill-opacity="0.85"/>
</svg>
