<svg width="19" height="19" viewBox="0 0 32 32" fill="none" xmlns="http://www.w3.org/2000/svg">
<path d="M22.4685 14.8766H17.1247V9.5329C17.1247 9.37821 16.9982 9.25165 16.8435 9.25165H15.156C15.0013 9.25165 14.8747 9.37821 14.8747 9.5329V14.8766H9.53098C9.37629 14.8766 9.24973 15.0032 9.24973 15.1579V16.8454C9.24973 17.0001 9.37629 17.1266 9.53098 17.1266H14.8747V22.4704C14.8747 22.6251 15.0013 22.7517 15.156 22.7517H16.8435C16.9982 22.7517 17.1247 22.6251 17.1247 22.4704V17.1266H22.4685C22.6232 17.1266 22.7497 17.0001 22.7497 16.8454V15.1579C22.7497 15.0032 22.6232 14.8766 22.4685 14.8766Z" fill="#3F88C5" fill-opacity="0.85"/>
<path d="M16 0.25C7.30234 0.25 0.25 7.30234 0.25 16C0.25 24.6977 7.30234 31.75 16 31.75C24.6977 31.75 31.75 24.6977 31.75 16C31.75 7.30234 24.6977 0.25 16 0.25ZM16 29.0781C8.77891 29.0781 2.92188 23.2211 2.92188 16C2.92188 8.77891 8.77891 2.92188 16 2.92188C23.2211 2.92188 29.0781 8.77891 29.0781 16C29.0781 23.2211 23.2211 29.0781 16 29.0781Z" fill="#3F88C5" fill-opacity="0.85"/>
</svg>
