<svg width="14" height="23" viewBox="0 0 34 32" fill="none" xmlns="http://www.w3.org/2000/svg">
<path d="M26.8926 29.1399C30.6533 26.1988 33.0721 21.6185 33.0721 16.4756C33.0721 7.60018 25.9002 0.420272 17.0247 0.408218C8.13723 0.396165 0.929199 7.59215 0.929199 16.4756C0.929199 21.506 3.23947 25.9939 6.85956 28.939C7.00018 29.0515 7.20509 29.0274 7.31759 28.8868L8.90063 26.8578C9.00911 26.7212 8.985 26.5243 8.85241 26.4118C8.52697 26.1466 8.21357 25.8613 7.91223 25.56C6.73749 24.3893 5.8014 23.0016 5.15599 21.4738C4.48099 19.8948 4.14349 18.2113 4.14349 16.4756C4.14349 14.7399 4.48099 13.0564 5.15197 11.4734C5.79884 9.94259 6.72697 8.56849 7.90822 7.38724C9.08947 6.20599 10.4636 5.27786 11.9944 4.63099C13.5814 3.96 15.2649 3.6225 17.0006 3.6225C18.7363 3.6225 20.4198 3.96 22.0029 4.63099C23.5337 5.27786 24.9078 6.20599 26.089 7.38724C27.2703 8.56849 28.1984 9.94259 28.8453 11.4734C29.5163 13.0564 29.8538 14.7399 29.8538 16.4756C29.8538 18.2113 29.5163 19.8948 28.8453 21.4779C28.1999 23.0056 27.2638 24.3934 26.089 25.564C25.7154 25.9377 25.3216 26.2872 24.9118 26.6087L23.2765 24.5154C23.2395 24.4675 23.1897 24.4311 23.1329 24.4102C23.0761 24.3894 23.0146 24.3851 22.9554 24.3976C22.8962 24.4102 22.8418 24.4393 22.7984 24.4814C22.755 24.5236 22.7243 24.5771 22.71 24.6359L21.1189 31.1529C21.0707 31.3538 21.2234 31.5506 21.4283 31.5506L28.1381 31.5828C28.4073 31.5828 28.56 31.2734 28.3913 31.0645L26.8926 29.1399Z" fill="black" fill-opacity="0.85"/>
</svg>
