<svg width="20" height="32" viewBox="0 0 20 32" fill="none" xmlns="http://www.w3.org/2000/svg">
<path d="M19.1933 14.9884L1.08081 0.841536C1.03348 0.804275 0.976599 0.781119 0.916704 0.774727C0.856808 0.768335 0.796324 0.778966 0.742198 0.8054C0.688071 0.831833 0.642499 0.872998 0.610713 0.924164C0.578928 0.975331 0.562218 1.03443 0.562504 1.09466V4.20046C0.562504 4.39734 0.654915 4.58618 0.807593 4.70671L15.2719 16.0009L0.807593 27.2951C0.650897 27.4156 0.562504 27.6045 0.562504 27.8014V30.9072C0.562504 31.1764 0.871878 31.325 1.08081 31.1603L19.1933 17.0134C19.3473 16.8933 19.4718 16.7397 19.5574 16.5643C19.6431 16.3888 19.6876 16.1962 19.6876 16.0009C19.6876 15.8057 19.6431 15.613 19.5574 15.4376C19.4718 15.2621 19.3473 15.1085 19.1933 14.9884Z" fill="black" fill-opacity="0.85"/>
</svg>
