<svg width="17" height="16" viewBox="0 0 17 16" fill="none" xmlns="http://www.w3.org/2000/svg">
<path d="M14.9284 12.641H13.4998V11.2125C13.4998 11.1339 13.4355 11.0696 13.3569 11.0696H12.4998C12.4212 11.0696 12.3569 11.1339 12.3569 11.2125V12.641H10.9284C10.8498 12.641 10.7855 12.7053 10.7855 12.7839V13.641C10.7855 13.7196 10.8498 13.7839 10.9284 13.7839H12.3569V15.2125C12.3569 15.291 12.4212 15.3553 12.4998 15.3553H13.3569C13.4355 15.3553 13.4998 15.291 13.4998 15.2125V13.7839H14.9284C15.0069 13.7839 15.0712 13.7196 15.0712 13.641V12.7839C15.0712 12.7053 15.0069 12.641 14.9284 12.641ZM5.66944 7.75533C5.65336 7.59997 5.64444 7.44283 5.64444 7.2839C5.64444 6.99997 5.67122 6.72319 5.72122 6.45354C5.73372 6.38926 5.69979 6.32319 5.64086 6.2964C5.39801 6.18747 5.17479 6.03747 4.98194 5.84819C4.75469 5.62784 4.57586 5.36255 4.45687 5.06923C4.33789 4.77591 4.28135 4.46101 4.29086 4.14462C4.30694 3.5714 4.53729 3.02676 4.93908 2.61604C5.38015 2.16426 5.97301 1.91783 6.60336 1.92497C7.17301 1.93033 7.72301 2.14997 8.13908 2.53926C8.28015 2.6714 8.40158 2.81783 8.50336 2.97497C8.53908 3.03033 8.60872 3.05354 8.66944 3.03212C8.98372 2.92319 9.31586 2.8464 9.65694 2.81069C9.75694 2.79997 9.81408 2.69283 9.76943 2.60354C9.18908 1.45533 8.00336 0.662473 6.63194 0.641044C4.65336 0.610687 3.00336 2.2339 3.00336 4.21247C3.00336 5.3339 3.51944 6.3339 4.32836 6.98926C3.76051 7.25176 3.23729 7.61426 2.78372 8.06783C1.80515 9.04462 1.25158 10.3339 1.21586 11.7107C1.21539 11.7297 1.21873 11.7487 1.2257 11.7665C1.23266 11.7842 1.24311 11.8004 1.25642 11.814C1.26974 11.8277 1.28565 11.8385 1.30322 11.8459C1.32078 11.8533 1.33966 11.8571 1.35872 11.8571H2.36051C2.43729 11.8571 2.50158 11.7964 2.50336 11.7196C2.53729 10.6839 2.95694 9.71426 3.69444 8.97854C4.21944 8.45354 4.86229 8.08926 5.56408 7.91247C5.63194 7.89283 5.67836 7.82676 5.66944 7.75533ZM13.7141 7.2839C13.7141 5.33033 12.1444 3.74283 10.198 3.71247C8.21944 3.68212 6.57122 5.30533 6.57122 7.2839C6.57122 8.40533 7.08908 9.40533 7.89622 10.0607C7.32248 10.3266 6.80019 10.6918 6.35336 11.1393C5.37479 12.116 4.82122 13.4053 4.78551 14.7803C4.78503 14.7994 4.78837 14.8183 4.79534 14.8361C4.80231 14.8538 4.81275 14.87 4.82607 14.8837C4.83938 14.8973 4.85529 14.9081 4.87286 14.9156C4.89043 14.923 4.9093 14.9268 4.92836 14.9268H5.92836C6.00515 14.9268 6.06944 14.866 6.07122 14.7893C6.10515 13.7535 6.52479 12.7839 7.26229 12.0482C8.03194 11.2785 9.05336 10.8553 10.1426 10.8553C12.1141 10.8553 13.7141 9.25712 13.7141 7.2839ZM11.7587 8.89997C11.3266 9.33212 10.7534 9.56962 10.1426 9.56962C9.53194 9.56962 8.95872 9.33212 8.52658 8.89997C8.31093 8.68545 8.14054 8.42982 8.02552 8.14824C7.91049 7.86665 7.85316 7.56484 7.85694 7.26069C7.86229 6.67497 8.09622 6.1089 8.50515 5.68926C8.93372 5.24997 9.50694 5.00533 10.1194 4.99819C10.7248 4.99283 11.3123 5.22854 11.7444 5.65176C12.1873 6.08569 12.4302 6.66604 12.4302 7.2839C12.4284 7.89462 12.1909 8.46783 11.7587 8.89997Z" fill="white"/>
</svg>
