<svg width="16" height="16" viewBox="0 0 16 16" fill="none" xmlns="http://www.w3.org/2000/svg">
<path d="M15.5535 13.6256H1.73207V1.08991C1.73207 1.00152 1.65975 0.929199 1.57136 0.929199H0.446359C0.357966 0.929199 0.285645 1.00152 0.285645 1.08991V14.9113C0.285645 14.9997 0.357966 15.0721 0.446359 15.0721H15.5535C15.6419 15.0721 15.7142 14.9997 15.7142 14.9113V13.7863C15.7142 13.698 15.6419 13.6256 15.5535 13.6256ZM3.49993 12.0185H4.62493C4.71332 12.0185 4.78565 11.9462 4.78565 11.8578V8.96491C4.78565 8.87652 4.71332 8.8042 4.62493 8.8042H3.49993C3.41154 8.8042 3.33922 8.87652 3.33922 8.96491V11.8578C3.33922 11.9462 3.41154 12.0185 3.49993 12.0185ZM6.5535 12.0185H7.6785C7.7669 12.0185 7.83922 11.9462 7.83922 11.8578V5.4292C7.83922 5.34081 7.7669 5.26849 7.6785 5.26849H6.5535C6.46511 5.26849 6.39279 5.34081 6.39279 5.4292V11.8578C6.39279 11.9462 6.46511 12.0185 6.5535 12.0185ZM9.60707 12.0185H10.7321C10.8205 12.0185 10.8928 11.9462 10.8928 11.8578V6.99616C10.8928 6.90777 10.8205 6.83545 10.7321 6.83545H9.60707C9.51868 6.83545 9.44636 6.90777 9.44636 6.99616V11.8578C9.44636 11.9462 9.51868 12.0185 9.60707 12.0185ZM12.6606 12.0185H13.7856C13.874 12.0185 13.9464 11.9462 13.9464 11.8578V3.82206C13.9464 3.73366 13.874 3.66134 13.7856 3.66134H12.6606C12.5723 3.66134 12.4999 3.73366 12.4999 3.82206V11.8578C12.4999 11.9462 12.5723 12.0185 12.6606 12.0185Z" fill="#828282"/>
</svg>
