<svg width="17" height="14" viewBox="0 0 17 14" fill="none" xmlns="http://www.w3.org/2000/svg">
<path d="M11.5713 5.82034H4.71414C4.63557 5.82034 4.57129 5.88463 4.57129 5.9632V13.1418C4.57129 13.2203 4.63557 13.2846 4.71414 13.2846H11.5713C11.6499 13.2846 11.7141 13.2203 11.7141 13.1418V5.9632C11.7141 5.88463 11.6499 5.82034 11.5713 5.82034ZM5.71414 6.9632H10.5713V9.05249H5.71414V6.9632ZM10.5713 12.1418H5.71414V10.0525H10.5713V12.1418Z" fill="#828282"/>
<path d="M6.57129 11.211C6.57129 11.3626 6.63149 11.5079 6.73865 11.6151C6.84582 11.7223 6.99116 11.7825 7.14272 11.7825C7.29427 11.7825 7.43961 11.7223 7.54678 11.6151C7.65394 11.5079 7.71414 11.3626 7.71414 11.211C7.71414 11.0595 7.65394 10.9141 7.54678 10.807C7.43961 10.6998 7.29427 10.6396 7.14272 10.6396C6.99116 10.6396 6.84582 10.6998 6.73865 10.807C6.63149 10.9141 6.57129 11.0595 6.57129 11.211ZM6.57129 8.03246C6.57129 8.18401 6.63149 8.32936 6.73865 8.43652C6.84582 8.54368 6.99116 8.60389 7.14272 8.60389C7.29427 8.60389 7.43961 8.54368 7.54678 8.43652C7.65394 8.32936 7.71414 8.18401 7.71414 8.03246C7.71414 7.88091 7.65394 7.73556 7.54678 7.6284C7.43961 7.52123 7.29427 7.46103 7.14272 7.46103C6.99116 7.46103 6.84582 7.52123 6.73865 7.6284C6.63149 7.73556 6.57129 7.88091 6.57129 8.03246Z" fill="#828282"/>
<path d="M13.4891 4.44464C12.6712 2.28571 10.5873 0.75 8.1462 0.75C5.70513 0.75 3.6212 2.28393 2.80334 4.44286C1.26584 4.84821 0.133702 6.25357 0.142631 7.92143C0.153345 9.78572 1.59977 11.3018 3.4212 11.4643C3.50513 11.4714 3.57656 11.4054 3.57656 11.3214V10.2429C3.57656 10.1714 3.52299 10.1107 3.45156 10.1018C2.96942 10.0411 2.51406 9.83036 2.16406 9.48571C1.73549 9.06607 1.49977 8.50179 1.49977 7.90357C1.49977 7.40357 1.66227 6.93214 1.96763 6.53929C2.26584 6.15714 2.68549 5.88036 3.14799 5.75893L3.82477 5.58036L4.07299 4.925C4.22656 4.51786 4.44085 4.13571 4.71049 3.79107C4.97656 3.44821 5.29263 3.14821 5.6462 2.89821C6.38013 2.38214 7.24442 2.10893 8.1462 2.10893C9.04799 2.10893 9.91227 2.38214 10.6462 2.9C11.0016 3.15 11.3158 3.45 11.5819 3.79286C11.8516 4.1375 12.0658 4.51964 12.2194 4.92679L12.4658 5.58036L13.1408 5.75893C14.1087 6.01607 14.7855 6.89643 14.7855 7.90179C14.7855 8.50179 14.5498 9.06429 14.1212 9.48393C13.773 9.82679 13.3194 10.0393 12.8373 10.1C12.7658 10.1089 12.7141 10.1696 12.7141 10.2411V11.3214C12.7141 11.4054 12.7873 11.4714 12.8712 11.4643C14.6873 11.3 16.1301 9.78572 16.1426 7.925C16.1533 6.25714 15.023 4.85179 13.4891 4.44464Z" fill="#828282"/>
</svg>
