<svg width="17" height="16" viewBox="0 0 17 16" fill="none" xmlns="http://www.w3.org/2000/svg">
<g clip-path="url(#clip0_1562_66001)">
<path d="M7.28627 1.42969H1.8577C1.70056 1.42969 1.57199 1.55826 1.57199 1.7154V7.14397C1.57199 7.30112 1.70056 7.42969 1.8577 7.42969H7.28627C7.44342 7.42969 7.57199 7.30112 7.57199 7.14397V1.7154C7.57199 1.55826 7.44342 1.42969 7.28627 1.42969ZM6.3577 6.2154H2.78627V2.64397H6.3577V6.2154ZM14.4291 1.42969H9.00056C8.84342 1.42969 8.71485 1.55826 8.71485 1.7154V7.14397C8.71485 7.30112 8.84342 7.42969 9.00056 7.42969H14.4291C14.5863 7.42969 14.7148 7.30112 14.7148 7.14397V1.7154C14.7148 1.55826 14.5863 1.42969 14.4291 1.42969ZM13.5006 6.2154H9.92913V2.64397H13.5006V6.2154ZM14.4291 8.57255H9.00056C8.84342 8.57255 8.71485 8.70112 8.71485 8.85826V14.2868C8.71485 14.444 8.84342 14.5725 9.00056 14.5725H14.4291C14.5863 14.5725 14.7148 14.444 14.7148 14.2868V8.85826C14.7148 8.70112 14.5863 8.57255 14.4291 8.57255ZM13.5006 13.3583H9.92913V9.78683H13.5006V13.3583ZM6.57199 11.5725H4.28627V9.28683C4.28627 9.20826 4.22199 9.14398 4.14342 9.14398H3.28627C3.2077 9.14398 3.14342 9.20826 3.14342 9.28683V11.5725H0.857701C0.779129 11.5725 0.714844 11.6368 0.714844 11.7154V12.5725C0.714844 12.6511 0.779129 12.7154 0.857701 12.7154H3.14342V15.0011C3.14342 15.0797 3.2077 15.144 3.28627 15.144H4.14342C4.22199 15.144 4.28627 15.0797 4.28627 15.0011V12.7154H6.57199C6.65056 12.7154 6.71485 12.6511 6.71485 12.5725V11.7154C6.71485 11.6368 6.65056 11.5725 6.57199 11.5725Z" fill="#828282"/>
</g>
<defs>
<clipPath id="clip0_1562_66001">
<rect width="16" height="16" fill="white" transform="translate(0.142578)"/>
</clipPath>
</defs>
</svg>
