<svg width="14" height="66" viewBox="0 0 14 66" fill="none" xmlns="http://www.w3.org/2000/svg">
<path d="M0 0L14 8V58L0 66V0Z" fill="white"/>
<path d="M9.77123 32.6853L4.13623 28.284C4.1215 28.2725 4.10381 28.2652 4.08517 28.2633C4.06654 28.2613 4.04772 28.2646 4.03088 28.2728C4.01404 28.281 3.99986 28.2938 3.98998 28.3097C3.98009 28.3257 3.97489 28.3441 3.97498 28.3628V29.329C3.97498 29.3903 4.00373 29.449 4.05123 29.4865L8.55123 33.0003L4.05123 36.514C4.00248 36.5515 3.97498 36.6103 3.97498 36.6715V37.6378C3.97498 37.7215 4.07123 37.7678 4.13623 37.7165L9.77123 33.3153C9.81912 33.2779 9.85787 33.2301 9.88451 33.1756C9.91116 33.121 9.92501 33.061 9.92501 33.0003C9.92501 32.9396 9.91116 32.8796 9.88451 32.825C9.85787 32.7704 9.81912 32.7227 9.77123 32.6853Z" fill="#012840" fill-opacity="0.25"/>
</svg>
