<svg width="16" height="17" viewBox="0 0 16 17" fill="none" xmlns="http://www.w3.org/2000/svg">
<g clip-path="url(#clip0_1097_108661)">
<path d="M14.3574 12.4294H13.102C13.0163 12.4294 12.936 12.4669 12.8824 12.533C12.7574 12.6848 12.6235 12.8312 12.4824 12.9705C11.9054 13.548 11.222 14.0083 10.4699 14.3258C9.69072 14.6549 8.85324 14.8238 8.0074 14.8223C7.15204 14.8223 6.32347 14.6544 5.5449 14.3258C4.79281 14.0083 4.10938 13.548 3.5324 12.9705C2.95439 12.3949 2.4935 11.7126 2.17526 10.9615C1.8449 10.183 1.67883 9.35619 1.67883 8.50083C1.67883 7.64548 1.84669 6.81869 2.17526 6.04012C2.49312 5.28833 2.95026 4.61155 3.5324 4.03119C4.11454 3.45083 4.79133 2.99369 5.5449 2.67583C6.32347 2.34726 7.15204 2.1794 8.0074 2.1794C8.86276 2.1794 9.69133 2.34548 10.4699 2.67583C11.2235 2.99369 11.9003 3.45083 12.4824 4.03119C12.6235 4.17226 12.7556 4.31869 12.8824 4.46869C12.936 4.53476 13.0181 4.57226 13.102 4.57226H14.3574C14.4699 4.57226 14.5395 4.44726 14.477 4.35262C13.1074 2.22405 10.711 0.815119 7.98776 0.822262C3.70919 0.832976 0.278829 4.30619 0.321686 8.57941C0.364543 12.7848 3.78954 16.1794 8.0074 16.1794C10.7235 16.1794 13.1092 14.7723 14.477 12.649C14.5378 12.5544 14.4699 12.4294 14.3574 12.4294ZM15.9449 8.38833L13.411 6.38833C13.3163 6.31333 13.1788 6.38119 13.1788 6.50083V7.85798H7.57169C7.49312 7.85798 7.42883 7.92226 7.42883 8.00083V9.00083C7.42883 9.07941 7.49312 9.14369 7.57169 9.14369H13.1788V10.5008C13.1788 10.6205 13.3181 10.6883 13.411 10.6133L15.9449 8.61333C15.962 8.59997 15.9758 8.5829 15.9853 8.56341C15.9948 8.54391 15.9997 8.52252 15.9997 8.50083C15.9997 8.47915 15.9948 8.45775 15.9853 8.43826C15.9758 8.41877 15.962 8.4017 15.9449 8.38833Z" fill="black"/>
</g>
<defs>
<clipPath id="clip0_1097_108661">
<rect width="16" height="16" fill="white" transform="translate(0 0.5)"/>
</clipPath>
</defs>
</svg>
