<svg width="15" height="22" viewBox="0 0 34 30" fill="none" xmlns="http://www.w3.org/2000/svg">
<path d="M9.28526 3.42983H6.63347V1.17983C6.63347 1.00304 6.48883 0.858398 6.31204 0.858398H4.22276C4.04597 0.858398 3.90133 1.00304 3.90133 1.17983V3.42983H1.24954C1.07276 3.42983 0.928116 3.57447 0.928116 3.75126V26.2513C0.928116 26.428 1.07276 26.5727 1.24954 26.5727H3.90133V28.8227C3.90133 28.9995 4.04597 29.1441 4.22276 29.1441H6.31204C6.48883 29.1441 6.63347 28.9995 6.63347 28.8227V26.5727H9.28526C9.46204 26.5727 9.60669 26.428 9.60669 26.2513V3.75126C9.60669 3.57447 9.46204 3.42983 9.28526 3.42983ZM6.87455 23.8405H3.66026V6.16197H6.87455V23.8405ZM32.7495 6.32268H30.0978V2.46554C30.0978 2.28876 29.9531 2.14411 29.7763 2.14411H27.687C27.5103 2.14411 27.3656 2.28876 27.3656 2.46554V6.32268H24.7138C24.537 6.32268 24.3924 6.46733 24.3924 6.64411V23.3584C24.3924 23.5352 24.537 23.6798 24.7138 23.6798H27.3656V27.537C27.3656 27.7138 27.5103 27.8584 27.687 27.8584H29.7763C29.9531 27.8584 30.0978 27.7138 30.0978 27.537V23.6798H32.7495C32.9263 23.6798 33.071 23.5352 33.071 23.3584V6.64411C33.071 6.46733 32.9263 6.32268 32.7495 6.32268ZM30.3388 20.9477H27.1245V9.05483H30.3388V20.9477ZM21.0174 10.662H18.3656V3.75126C18.3656 3.57447 18.221 3.42983 18.0442 3.42983H15.9549C15.7781 3.42983 15.6335 3.57447 15.6335 3.75126V10.662H12.9817C12.8049 10.662 12.6603 10.8066 12.6603 10.9834V19.0191C12.6603 19.1959 12.8049 19.3405 12.9817 19.3405H15.6335V26.2513C15.6335 26.428 15.7781 26.5727 15.9549 26.5727H18.0442C18.221 26.5727 18.3656 26.428 18.3656 26.2513V19.3405H21.0174C21.1942 19.3405 21.3388 19.1959 21.3388 19.0191V10.9834C21.3388 10.8066 21.1942 10.662 21.0174 10.662ZM18.6067 16.4879C18.6067 16.5198 18.594 16.5505 18.5714 16.5731C18.5488 16.5957 18.5181 16.6084 18.4862 16.6084H15.5129C15.481 16.6084 15.4503 16.5957 15.4277 16.5731C15.4051 16.5505 15.3924 16.5198 15.3924 16.4879V13.5146C15.3924 13.4827 15.4051 13.452 15.4277 13.4294C15.4503 13.4068 15.481 13.3941 15.5129 13.3941H18.4862C18.5181 13.3941 18.5488 13.4068 18.5714 13.4294C18.594 13.452 18.6067 13.4827 18.6067 13.5146V16.4879Z" fill="white" fill-opacity="1"/>
</svg>
