<svg width="17" height="17" viewBox="0 0 32 32" fill="none" xmlns="http://www.w3.org/2000/svg">
<path d="M16 0.25C7.30234 0.25 0.25 7.30234 0.25 16C0.25 24.6977 7.30234 31.75 16 31.75C24.6977 31.75 31.75 24.6977 31.75 16C31.75 7.30234 24.6977 0.25 16 0.25ZM16 25.1406C15.223 25.1406 14.5938 24.5113 14.5938 23.7344C14.5938 22.9574 15.223 22.3281 16 22.3281C16.777 22.3281 17.4062 22.9574 17.4062 23.7344C17.4062 24.5113 16.777 25.1406 16 25.1406ZM18.2113 17.4238C17.8929 17.5468 17.619 17.7628 17.4252 18.0438C17.2314 18.3247 17.1268 18.6575 17.125 18.9988V19.7969C17.125 19.9516 16.9984 20.0781 16.8438 20.0781H15.1562C15.0016 20.0781 14.875 19.9516 14.875 19.7969V19.041C14.875 18.2289 15.1105 17.4273 15.5746 16.7594C16.0281 16.1055 16.6609 15.6063 17.4062 15.3215C18.6016 14.8609 19.375 13.859 19.375 12.7656C19.375 11.2152 17.8598 9.95312 16 9.95312C14.1402 9.95312 12.625 11.2152 12.625 12.7656V13.0328C12.625 13.1875 12.4984 13.3141 12.3438 13.3141H10.6562C10.5016 13.3141 10.375 13.1875 10.375 13.0328V12.7656C10.375 11.384 10.9797 10.0938 12.0766 9.13398C13.1312 8.20938 14.5234 7.70312 16 7.70312C17.4766 7.70312 18.8687 8.21289 19.9234 9.13398C21.0203 10.0938 21.625 11.384 21.625 12.7656C21.625 14.7977 20.2855 16.6258 18.2113 17.4238Z" fill="black" fill-opacity="0.85"/>
</svg>
