<svg width="10" height="10" viewBox="0 0 34 28" fill="none" xmlns="http://www.w3.org/2000/svg">
<path d="M33.0726 1.14537H9.60834C9.43155 1.14537 9.28691 1.29001 9.28691 1.4668V3.7168C9.28691 3.89358 9.43155 4.03823 9.60834 4.03823H33.0726C33.2494 4.03823 33.3941 3.89358 33.3941 3.7168V1.4668C33.3941 1.29001 33.2494 1.14537 33.0726 1.14537ZM33.0726 12.5561H9.60834C9.43155 12.5561 9.28691 12.7007 9.28691 12.8775V15.1275C9.28691 15.3043 9.43155 15.4489 9.60834 15.4489H33.0726C33.2494 15.4489 33.3941 15.3043 33.3941 15.1275V12.8775C33.3941 12.7007 33.2494 12.5561 33.0726 12.5561ZM33.0726 23.9668H9.60834C9.43155 23.9668 9.28691 24.1114 9.28691 24.2882V26.5382C9.28691 26.715 9.43155 26.8597 9.60834 26.8597H33.0726C33.2494 26.8597 33.3941 26.715 33.3941 26.5382V24.2882C33.3941 24.1114 33.2494 23.9668 33.0726 23.9668ZM0.608337 2.5918C0.608337 2.88727 0.666535 3.17985 0.779609 3.45283C0.892682 3.72582 1.05842 3.97386 1.26735 4.18279C1.47628 4.39172 1.72432 4.55745 1.9973 4.67053C2.27028 4.7836 2.56286 4.8418 2.85834 4.8418C3.15381 4.8418 3.44639 4.7836 3.71938 4.67053C3.99236 4.55745 4.2404 4.39172 4.44933 4.18279C4.65826 3.97386 4.82399 3.72582 4.93707 3.45283C5.05014 3.17985 5.10834 2.88727 5.10834 2.5918C5.10834 2.29632 5.05014 2.00374 4.93707 1.73076C4.82399 1.45778 4.65826 1.20974 4.44933 1.00081C4.2404 0.791875 3.99236 0.626141 3.71938 0.513068C3.44639 0.399995 3.15381 0.341797 2.85834 0.341797C2.56286 0.341797 2.27028 0.399995 1.9973 0.513068C1.72432 0.626141 1.47628 0.791875 1.26735 1.00081C1.05842 1.20974 0.892682 1.45778 0.779609 1.73076C0.666535 2.00374 0.608337 2.29632 0.608337 2.5918ZM0.608337 14.0025C0.608337 14.298 0.666535 14.5906 0.779609 14.8636C0.892682 15.1365 1.05842 15.3846 1.26735 15.5935C1.47628 15.8024 1.72432 15.9682 1.9973 16.0812C2.27028 16.1943 2.56286 16.2525 2.85834 16.2525C3.15381 16.2525 3.44639 16.1943 3.71938 16.0812C3.99236 15.9682 4.2404 15.8024 4.44933 15.5935C4.65826 15.3846 4.82399 15.1365 4.93707 14.8636C5.05014 14.5906 5.10834 14.298 5.10834 14.0025C5.10834 13.707 5.05014 13.4145 4.93707 13.1415C4.82399 12.8685 4.65826 12.6205 4.44933 12.4115C4.2404 12.2026 3.99236 12.0369 3.71938 11.9238C3.44639 11.8107 3.15381 11.7525 2.85834 11.7525C2.56286 11.7525 2.27028 11.8107 1.9973 11.9238C1.72432 12.0369 1.47628 12.2026 1.26735 12.4115C1.05842 12.6205 0.892682 12.8685 0.779609 13.1415C0.666535 13.4145 0.608337 13.707 0.608337 14.0025ZM0.608337 25.4132C0.608337 25.7087 0.666535 26.0013 0.779609 26.2743C0.892682 26.5472 1.05842 26.7953 1.26735 27.0042C1.47628 27.2131 1.72432 27.3789 1.9973 27.492C2.27028 27.605 2.56286 27.6632 2.85834 27.6632C3.15381 27.6632 3.44639 27.605 3.71938 27.492C3.99236 27.3789 4.2404 27.2131 4.44933 27.0042C4.65826 26.7953 4.82399 26.5472 4.93707 26.2743C5.05014 26.0013 5.10834 25.7087 5.10834 25.4132C5.10834 25.1178 5.05014 24.8252 4.93707 24.5522C4.82399 24.2792 4.65826 24.0312 4.44933 23.8222C4.2404 23.6133 3.99236 23.4476 3.71938 23.3345C3.44639 23.2214 3.15381 23.1632 2.85834 23.1632C2.56286 23.1632 2.27028 23.2214 1.9973 23.3345C1.72432 23.4476 1.47628 23.6133 1.26735 23.8222C1.05842 24.0312 0.892682 24.2792 0.779609 24.5522C0.666535 24.8252 0.608337 25.1178 0.608337 25.4132Z" fill="black" fill-opacity="0.85" />
</svg>
