<svg width="18" height="18" viewBox="0 0 18 18" fill="none" xmlns="http://www.w3.org/2000/svg">
<path d="M16.4334 4.18309V1.60965C16.4334 1.25407 16.1461 0.966797 15.7905 0.966797H2.21015C1.85457 0.966797 1.56729 1.25407 1.56729 1.60965V4.18309C1.2318 4.20318 0.964612 4.48242 0.964612 4.82394V7.4697C0.963326 7.95595 1.06178 8.43729 1.2539 8.88399C1.34028 9.0889 1.44675 9.28175 1.56729 9.46457V16.3954C1.56729 16.7489 1.85457 17.0382 2.21015 17.0382H15.7905C16.1461 17.0382 16.4334 16.7509 16.4334 16.3954V9.46457C16.5558 9.28129 16.6607 9.08691 16.7468 8.88399C16.9376 8.43599 17.036 7.95988 17.036 7.4697V4.82394C17.036 4.48242 16.7689 4.20318 16.4334 4.18309ZM3.01372 2.41323H14.9869V4.18108H3.01372V2.41323ZM10.286 15.5938H7.71461V13.5025H10.286V15.5938ZM14.9869 15.5938H11.5718V12.8597C11.5718 12.5041 11.2845 12.2168 10.9289 12.2168H7.07176C6.71617 12.2168 6.4289 12.5041 6.4289 12.8597V15.5938H3.01372V10.7282C3.07198 10.7563 3.13225 10.7844 3.19452 10.8085C3.64251 10.9974 4.11863 11.0918 4.60881 11.0918C5.09899 11.0918 5.57309 10.9974 6.02309 10.8085C6.30033 10.692 6.56149 10.5434 6.80055 10.3646C6.80457 10.3626 6.80859 10.3626 6.8126 10.3646C7.05241 10.5441 7.31355 10.6933 7.59006 10.8085C8.03805 10.9974 8.51417 11.0918 9.00434 11.0918C9.49452 11.0918 9.96863 10.9974 10.4186 10.8085C10.6959 10.692 10.957 10.5434 11.1961 10.3646C11.2001 10.3626 11.2041 10.3626 11.2081 10.3646C11.4479 10.5441 11.7091 10.6933 11.9856 10.8085C12.4336 10.9974 12.9097 11.0918 13.3999 11.0918C13.8901 11.0918 14.3642 10.9974 14.8142 10.8085C14.8744 10.7824 14.9347 10.7563 14.995 10.7282V15.5938H14.9869ZM15.5896 7.4697C15.5896 8.67104 14.6052 9.64537 13.3939 9.64537C12.5742 9.64537 11.859 9.2014 11.4814 8.54247C11.4231 8.44202 11.3186 8.37974 11.2021 8.37974H11.1901C11.0756 8.37974 10.9691 8.44202 10.9108 8.54247C10.7181 8.87859 10.4398 9.1577 10.1042 9.35142C9.76866 9.54513 9.38779 9.64655 9.00033 9.64537C8.18269 9.64537 7.46952 9.2034 7.09184 8.54648C7.03158 8.44403 6.92309 8.37974 6.80457 8.37974C6.68604 8.37974 6.57555 8.44403 6.51729 8.54648C6.32343 8.88133 6.04478 9.15919 5.70939 9.3521C5.374 9.54501 4.99371 9.64616 4.6068 9.64537C3.39542 9.64537 2.41104 8.67104 2.41104 7.4697V5.63756C2.41104 5.63153 2.41506 5.62751 2.42109 5.62751H15.5796C15.5856 5.62751 15.5896 5.63153 15.5896 5.63756V7.4697Z" fill="#828282"/>
</svg>
