<svg width="14" height="14" viewBox="0 0 14 14" fill="none" xmlns="http://www.w3.org/2000/svg">
<path d="M7.00195 0.875488C3.61953 0.875488 0.876953 3.61807 0.876953 7.00049C0.876953 10.3829 3.61953 13.1255 7.00195 13.1255C10.3844 13.1255 13.127 10.3829 13.127 7.00049C13.127 3.61807 10.3844 0.875488 7.00195 0.875488ZM9.64746 5.00029L6.76816 8.99248C6.72792 9.04865 6.67487 9.09442 6.61341 9.12599C6.55195 9.15756 6.48384 9.17403 6.41475 9.17403C6.34565 9.17403 6.27755 9.15756 6.21608 9.12599C6.15462 9.09442 6.10157 9.04865 6.06133 8.99248L4.35645 6.62998C4.30449 6.55752 4.35645 6.45635 4.44531 6.45635H5.08652C5.22598 6.45635 5.35859 6.52334 5.44062 6.63818L6.41406 7.98896L8.56328 5.0085C8.64531 4.89502 8.77656 4.82666 8.91738 4.82666H9.55859C9.64746 4.82666 9.69941 4.92783 9.64746 5.00029Z" fill="white"/>
</svg>
