<svg width="15" height="13" viewBox="0 0 26 30" fill="none" xmlns="http://www.w3.org/2000/svg">
<path d="M25.5366 26.7347H0.465197C0.288411 26.7347 0.143768 26.8713 0.143768 27.04V29.4829C0.143768 29.6516 0.288411 29.7882 0.465197 29.7882H25.5366C25.7134 29.7882 25.8581 29.6516 25.8581 29.4829V27.04C25.8581 26.8713 25.7134 26.7347 25.5366 26.7347ZM13.0009 23.6811C15.7893 23.6811 18.4089 22.5922 20.3857 20.6195C22.3625 18.6467 23.4473 16.023 23.4473 13.2347V0.69894C23.4473 0.433761 23.2304 0.216797 22.9652 0.216797H20.5545C20.2893 0.216797 20.0723 0.433761 20.0723 0.69894V13.2347C20.0723 17.132 16.8982 20.3061 13.0009 20.3061C9.10359 20.3061 5.92948 17.132 5.92948 13.2347V0.69894C5.92948 0.433761 5.71252 0.216797 5.44734 0.216797H3.03663C2.77145 0.216797 2.55448 0.433761 2.55448 0.69894V13.2347C2.55448 16.023 3.64332 18.6427 5.61609 20.6195C7.58886 22.5963 10.2125 23.6811 13.0009 23.6811Z" fill="white" fill-opacity="0.85"/>
</svg>
