<svg width="15" height="21" viewBox="0 0 24 30" fill="none" xmlns="http://www.w3.org/2000/svg">
<path d="M23.4914 0.858398H6.13423C5.95744 0.858398 5.8128 1.00304 5.8128 1.17983V3.75126C5.8128 3.92804 5.95744 4.07268 6.13423 4.07268H13.4146L7.14673 25.9298H0.629763C0.452977 25.9298 0.308334 26.0745 0.308334 26.2513V28.8227C0.308334 28.9995 0.452977 29.1441 0.629763 29.1441H17.9869C18.1637 29.1441 18.3083 28.9995 18.3083 28.8227V26.2513C18.3083 26.0745 18.1637 25.9298 17.9869 25.9298H10.4896L16.7574 4.07268H23.4914C23.6682 4.07268 23.8128 3.92804 23.8128 3.75126V1.17983C23.8128 1.00304 23.6682 0.858398 23.4914 0.858398Z" fill="white" fill-opacity="0.85"/>
</svg>
