<svg width="15" height="15" viewBox="0 0 34 34" fill="none" xmlns="http://www.w3.org/2000/svg">
<path d="M32.7506 29.2105H1.2506C1.07381 29.2105 0.929169 29.3552 0.929169 29.5319V32.7462C0.929169 32.923 1.07381 33.0677 1.2506 33.0677H32.7506C32.9274 33.0677 33.072 32.923 33.072 32.7462V29.5319C33.072 29.3552 32.9274 29.2105 32.7506 29.2105ZM6.62247 25.9962H10.0377C10.2064 25.9962 10.3591 25.8878 10.4113 25.723L12.5689 19.0534H21.376L23.5135 25.723C23.5658 25.8837 23.7144 25.9962 23.8872 25.9962H27.4671C27.5113 25.9962 27.5555 25.9882 27.5957 25.9761C27.6444 25.9594 27.6892 25.9333 27.7277 25.8991C27.7662 25.865 27.7976 25.8236 27.82 25.7773C27.8424 25.7309 27.8555 25.6806 27.8583 25.6293C27.8612 25.5779 27.8539 25.5265 27.8368 25.4779L19.4756 1.18998C19.4485 1.11329 19.3985 1.04675 19.3324 0.999335C19.2663 0.951919 19.1873 0.925907 19.106 0.924805H14.9957C14.8269 0.924805 14.6783 1.02927 14.626 1.18998L6.25283 25.4779C6.23676 25.5181 6.23274 25.5623 6.23274 25.6065C6.22872 25.8194 6.40551 25.9962 6.62247 25.9962V25.9962ZM16.9042 5.26007H17.0689L20.4359 15.8592H13.501L16.9042 5.26007V5.26007Z" fill="black" fill-opacity="0.85"/>
</svg>
