<svg width="15" height="14" viewBox="0 0 36 30" fill="none" xmlns="http://www.w3.org/2000/svg">
<path d="M35.6786 13.4757H20.3263C19.9246 13.3954 19.5027 13.315 19.0567 13.2347C18.4179 13.1181 18.1647 13.0699 17.8192 13.0016C15.758 12.5998 14.5165 12.198 13.5281 11.6275C12.1179 10.8039 11.4308 9.68689 11.4308 8.20832C11.4308 6.72171 12.0415 5.48823 13.1987 4.63242C14.3397 3.78867 15.9629 3.34269 17.8915 3.34269C20.0933 3.34269 21.7929 3.92126 22.946 5.06233C23.5326 5.6409 23.9625 6.35207 24.2237 7.17573C24.2759 7.34046 24.3362 7.57751 24.3964 7.8909C24.4326 8.08376 24.6054 8.22037 24.7942 8.22037H27.7192C27.9442 8.22037 28.125 8.03555 28.125 7.81457V7.77439C28.0969 7.50117 28.0728 7.28823 28.0446 7.13153C27.7513 5.38376 26.9196 3.84894 25.646 2.69983C23.8621 1.0726 21.2384 0.216797 18.0643 0.216797C15.1594 0.216797 12.5437 0.944029 10.6996 2.26189C9.67098 3.00117 8.87545 3.91724 8.34509 4.98198C7.80268 6.07082 7.52946 7.3284 7.52946 8.71457C7.52946 9.89983 7.75848 10.9043 8.22455 11.7882C8.55804 12.419 9.01205 12.9735 9.59464 13.4757H0.321429C0.144643 13.4757 0 13.6204 0 13.7972V16.2079C0 16.3847 0.144643 16.5293 0.321429 16.5293H17.7268C17.8112 16.5454 17.8835 16.5614 17.9638 16.5775C19.2054 16.8266 19.9527 16.9954 20.6397 17.1882C21.5638 17.4494 22.271 17.7226 22.8576 18.0521C24.296 18.8637 24.9991 20.0289 24.9991 21.628C24.9991 23.0463 24.3763 24.3119 23.2473 25.1958C22.0219 26.1561 20.2098 26.6583 18.004 26.6583C16.2482 26.6583 14.7616 26.3168 13.5763 25.6539C12.4071 24.9989 11.6036 24.0547 11.1777 22.8614C11.1455 22.773 11.1094 22.6525 11.0692 22.4998C11.021 22.323 10.8562 22.1985 10.6795 22.1985H7.47723C7.25223 22.1985 7.07143 22.3833 7.07143 22.6043V22.6445C7.07946 22.7369 7.0875 22.8132 7.09554 22.8735C7.3567 24.8342 8.31295 26.4414 9.93616 27.6467C11.8286 29.0449 14.4924 29.7842 17.6424 29.7842C21.0254 29.7842 23.8621 28.9887 25.8469 27.482C26.8513 26.7226 27.6228 25.7864 28.1411 24.7097C28.6634 23.6208 28.9326 22.3833 28.9326 21.0333C28.9326 19.7556 28.6996 18.6869 28.2174 17.7628C27.9844 17.3128 27.6911 16.8989 27.3415 16.5253H35.6786C35.8554 16.5253 36 16.3806 36 16.2039V13.7931C35.9989 13.7086 35.9646 13.6279 35.9044 13.5684C35.8443 13.509 35.7631 13.4757 35.6786 13.4757V13.4757Z" fill="black" fill-opacity="0.85"/>
</svg>
