<svg width="14" height="23" viewBox="0 0 34 32" fill="none" xmlns="http://www.w3.org/2000/svg">
<path d="M16.9765 0.408218C8.10107 0.420272 0.929199 7.60018 0.929199 16.4756C0.929199 21.6185 3.34795 26.1988 7.10866 29.1399L5.60197 31.0685C5.43724 31.2814 5.58991 31.5908 5.85509 31.5868L12.5649 31.5546C12.7738 31.5546 12.9265 31.3578 12.8743 31.1569L11.2872 24.6359C11.2729 24.5771 11.2423 24.5236 11.1989 24.4814C11.1555 24.4393 11.101 24.4102 11.0418 24.3976C10.9827 24.3851 10.9211 24.3894 10.8643 24.4102C10.8075 24.4311 10.7577 24.4675 10.7207 24.5154L9.08545 26.6087C8.67563 26.2872 8.28188 25.9377 7.90822 25.564C6.73348 24.3934 5.79738 23.0056 5.15197 21.4779C4.48099 19.8948 4.14349 18.2113 4.14349 16.4756C4.14349 14.7399 4.48099 13.0564 5.15197 11.4734C5.79884 9.94259 6.72697 8.56849 7.90822 7.38724C9.08947 6.20599 10.4636 5.27786 11.9944 4.63099C13.5814 3.96 15.2649 3.6225 17.0006 3.6225C18.7363 3.6225 20.4198 3.96 22.0029 4.63099C23.5337 5.27786 24.9078 6.20599 26.089 7.38724C27.2703 8.56849 28.1984 9.94259 28.8453 11.4734C29.5163 13.0564 29.8538 14.7399 29.8538 16.4756C29.8538 18.2113 29.5163 19.8948 28.8453 21.4779C28.1999 23.0056 27.2638 24.3934 26.089 25.564C25.7877 25.8654 25.4743 26.1466 25.1488 26.4158C25.0836 26.4688 25.042 26.5454 25.033 26.6289C25.0239 26.7124 25.0482 26.7961 25.1006 26.8618L26.6837 28.8908C26.7962 29.0314 27.0011 29.0555 27.1417 28.943C30.7618 25.9939 33.0721 21.506 33.0721 16.4756C33.0721 7.59215 25.864 0.396165 16.9765 0.408218Z" fill="white" fill-opacity="0.85"/>
</svg>
