<svg width="20" height="20" viewBox="0 0 32 32" fill="none" xmlns="http://www.w3.org/2000/svg">
<path d="M16.2276 10.6674C16.2017 10.6315 16.1677 10.6022 16.1283 10.582C16.0888 10.5619 16.0452 10.5513 16.0009 10.5513C15.9566 10.5513 15.9129 10.5619 15.8735 10.582C15.8341 10.6022 15.8 10.6315 15.7741 10.6674L9.51631 19.3159C9.38272 19.5022 9.51631 19.7624 9.74483 19.7624H11.3937C11.7523 19.7624 12.0933 19.5901 12.3042 19.2983L15.9991 14.1866L19.6976 19.2983C19.9085 19.5901 20.246 19.7624 20.6081 19.7624H22.2569C22.4855 19.7624 22.619 19.5022 22.4855 19.3159L16.2276 10.6674Z" fill="#bf71ff" fill-opacity="1"/>
<path d="M16 0.25C7.30234 0.25 0.25 7.30234 0.25 16C0.25 24.6977 7.30234 31.75 16 31.75C24.6977 31.75 31.75 24.6977 31.75 16C31.75 7.30234 24.6977 0.25 16 0.25ZM16 29.0781C8.77891 29.0781 2.92188 23.2211 2.92188 16C2.92188 8.77891 8.77891 2.92188 16 2.92188C23.2211 2.92188 29.0781 8.77891 29.0781 16C29.0781 23.2211 23.2211 29.0781 16 29.0781Z" fill="#bf71ff" fill-opacity="1"/>
</svg>
