<svg width="14" height="16" viewBox="0 0 14 16" fill="none" xmlns="http://www.w3.org/2000/svg">
<path d="M13.4798 1.89442L7.41194 -0.173438C7.33873 -0.198438 7.24051 -0.210938 7.1423 -0.210938C7.04409 -0.210938 6.94587 -0.198438 6.87266 -0.173438L0.804799 1.89442C0.656585 1.94442 0.535156 2.11585 0.535156 2.27299V10.8873C0.535156 11.0444 0.636942 11.2516 0.760156 11.3498L6.91551 16.1462C6.97801 16.1944 7.05837 16.2194 7.14051 16.2194C7.22266 16.2194 7.3048 16.1944 7.36551 16.1462L13.5209 11.3498C13.6441 11.2533 13.7459 11.0462 13.7459 10.8873V2.27299C13.7494 2.11585 13.628 1.94621 13.4798 1.89442ZM12.4637 10.5444L7.1423 14.6908L1.82087 10.5444V2.90871L7.1423 1.09442L12.4637 2.90871V10.5444ZM5.2173 6.95513C5.16373 6.88192 5.07801 6.83728 4.98516 6.83728H3.99944C3.88337 6.83728 3.81551 6.96942 3.88337 7.06406L6.14051 10.1712C6.1672 10.2077 6.20214 10.2375 6.24247 10.2579C6.28281 10.2784 6.32741 10.2891 6.37266 10.2891C6.4179 10.2891 6.4625 10.2784 6.50284 10.2579C6.54318 10.2375 6.57811 10.2077 6.6048 10.1712L10.4012 4.94442C10.4691 4.84978 10.4012 4.71763 10.2852 4.71763H9.29944C9.20837 4.71763 9.12087 4.76228 9.0673 4.83549L6.37266 8.54621L5.2173 6.95513Z" fill="#1890FF"/>
</svg>
